<mxfile host="app.diagrams.net" modified="2024-03-17T14:57:42.793Z" agent="Mozilla/5.0 (Windows NT 10.0; Win64; x64) AppleWebKit/537.36 (KHTML, like Gecko) Chrome/122.0.0.0 Safari/537.36 Edg/122.0.0.0" etag="7TMUK-75o7RA17_hRCyD" version="24.0.7" type="github" pages="5">
  <diagram name="페이지-1" id="6JFsrdQqGEhPz1va3-81">
    <mxGraphModel dx="1379" dy="2082" grid="1" gridSize="10" guides="1" tooltips="1" connect="1" arrows="1" fold="1" page="1" pageScale="1" pageWidth="827" pageHeight="1169" math="0" shadow="0">
      <root>
        <mxCell id="0" />
        <mxCell id="1" parent="0" />
        <mxCell id="lmg4brPIaGzQlEN9y0-D-8" value="window 7 pro" style="rounded=0;whiteSpace=wrap;html=1;verticalAlign=top;" parent="1" vertex="1">
          <mxGeometry x="850" y="-780" width="300" height="220" as="geometry" />
        </mxCell>
        <mxCell id="lmg4brPIaGzQlEN9y0-D-6" value="관리자가 제어할 데이터" style="rounded=0;whiteSpace=wrap;html=1;verticalAlign=top;fillColor=#f5f5f5;fontColor=#333333;strokeColor=#666666;" parent="1" vertex="1">
          <mxGeometry x="860" y="-750" width="280" height="70" as="geometry" />
        </mxCell>
        <mxCell id="lmg4brPIaGzQlEN9y0-D-4" value="실제 사용자에게 연결될 데이터" style="rounded=0;whiteSpace=wrap;html=1;verticalAlign=bottom;fillColor=#f5f5f5;fontColor=#333333;strokeColor=#666666;" parent="1" vertex="1">
          <mxGeometry x="860" y="-640" width="280" height="70" as="geometry" />
        </mxCell>
        <mxCell id="HkNQrenado_MbdtVK74K-16" value="" style="rounded=0;whiteSpace=wrap;html=1;fontSize=16;" parent="1" vertex="1">
          <mxGeometry x="50" y="115" width="540" height="515" as="geometry" />
        </mxCell>
        <mxCell id="HkNQrenado_MbdtVK74K-17" value="Children Category" style="rounded=0;whiteSpace=wrap;html=1;fontSize=16;" parent="1" vertex="1">
          <mxGeometry x="60" y="315" width="520" height="30" as="geometry" />
        </mxCell>
        <mxCell id="HkNQrenado_MbdtVK74K-18" value="children post" style="rounded=0;whiteSpace=wrap;html=1;fontSize=16;" parent="1" vertex="1">
          <mxGeometry x="60" y="470" width="520" height="30" as="geometry" />
        </mxCell>
        <mxCell id="HkNQrenado_MbdtVK74K-19" value="&lt;ul&gt;&lt;li&gt;post &amp;lt;a href=&quot;post&amp;gt;post&amp;lt;/a&amp;gt;&lt;br&gt;&lt;/li&gt;&lt;li&gt;post2 &amp;lt;a href=post2&amp;gt;post2&amp;lt;/a&amp;gt;&lt;/li&gt;&lt;/ul&gt;" style="rounded=0;whiteSpace=wrap;html=1;fontSize=16;verticalAlign=top;align=left;" parent="1" vertex="1">
          <mxGeometry x="60" y="510" width="520" height="100" as="geometry" />
        </mxCell>
        <mxCell id="HkNQrenado_MbdtVK74K-20" value="&lt;ul&gt;&lt;li&gt;UP category &amp;lt;a href=&quot;../&amp;gt;UP&amp;lt;/a&amp;gt;&lt;/li&gt;&lt;li&gt;child category &amp;lt;a href=&quot;child category&quot;&amp;gt;child category&amp;lt;/a&amp;gt;&lt;/li&gt;&lt;li&gt;child category2 &amp;lt;a href=&quot;child category2&quot;&amp;gt;child category2&amp;lt;/a&amp;gt;&lt;/li&gt;&lt;/ul&gt;" style="rounded=0;whiteSpace=wrap;html=1;fontSize=16;verticalAlign=top;align=left;" parent="1" vertex="1">
          <mxGeometry x="60" y="355" width="520" height="85" as="geometry" />
        </mxCell>
        <mxCell id="HkNQrenado_MbdtVK74K-21" value="&lt;h1 style=&quot;border-color: var(--border-color); text-align: left;&quot;&gt;Heading&lt;/h1&gt;" style="rounded=0;whiteSpace=wrap;html=1;fontSize=16;" parent="1" vertex="1">
          <mxGeometry x="60" y="125" width="520" height="30" as="geometry" />
        </mxCell>
        <mxCell id="HkNQrenado_MbdtVK74K-22" value="" style="rounded=0;whiteSpace=wrap;html=1;fontSize=16;verticalAlign=top;align=left;" parent="1" vertex="1">
          <mxGeometry x="60" y="165" width="520" height="120" as="geometry" />
        </mxCell>
        <mxCell id="HkNQrenado_MbdtVK74K-24" value="&lt;br&gt;Lorem ipsum dolor sit amet, consectetur adipisicing elit, sed do eiusmod tempor incididunt ut labore et dolore magna aliqua." style="text;html=1;strokeColor=none;fillColor=none;align=center;verticalAlign=middle;whiteSpace=wrap;rounded=0;fontSize=16;" parent="1" vertex="1">
          <mxGeometry x="70" y="185" width="500" height="70" as="geometry" />
        </mxCell>
        <mxCell id="HkNQrenado_MbdtVK74K-29" value="" style="edgeStyle=none;curved=1;rounded=0;orthogonalLoop=1;jettySize=auto;html=1;fontSize=12;startSize=8;endSize=8;entryX=0;entryY=0.5;entryDx=0;entryDy=0;" parent="1" source="HkNQrenado_MbdtVK74K-25" target="HkNQrenado_MbdtVK74K-38" edge="1">
          <mxGeometry relative="1" as="geometry">
            <mxPoint x="640" y="205" as="targetPoint" />
          </mxGeometry>
        </mxCell>
        <mxCell id="HkNQrenado_MbdtVK74K-25" value="" style="rounded=0;whiteSpace=wrap;html=1;fontSize=16;labelBackgroundColor=none;fillColor=none;strokeColor=#d79b00;strokeWidth=2;" parent="1" vertex="1">
          <mxGeometry x="40" y="105" width="560" height="190" as="geometry" />
        </mxCell>
        <mxCell id="HkNQrenado_MbdtVK74K-33" value="" style="edgeStyle=none;curved=1;rounded=0;orthogonalLoop=1;jettySize=auto;html=1;fontSize=12;startSize=8;endSize=8;" parent="1" source="HkNQrenado_MbdtVK74K-30" target="HkNQrenado_MbdtVK74K-32" edge="1">
          <mxGeometry relative="1" as="geometry" />
        </mxCell>
        <mxCell id="HkNQrenado_MbdtVK74K-30" value="" style="rounded=0;whiteSpace=wrap;html=1;fontSize=16;labelBackgroundColor=none;fillColor=none;strokeColor=#d79b00;strokeWidth=2;" parent="1" vertex="1">
          <mxGeometry x="40" y="307.5" width="560" height="142.5" as="geometry" />
        </mxCell>
        <mxCell id="HkNQrenado_MbdtVK74K-37" value="" style="edgeStyle=none;curved=1;rounded=0;orthogonalLoop=1;jettySize=auto;html=1;fontSize=12;startSize=8;endSize=8;" parent="1" source="HkNQrenado_MbdtVK74K-31" target="HkNQrenado_MbdtVK74K-36" edge="1">
          <mxGeometry relative="1" as="geometry" />
        </mxCell>
        <mxCell id="HkNQrenado_MbdtVK74K-31" value="" style="rounded=0;whiteSpace=wrap;html=1;fontSize=16;labelBackgroundColor=none;fillColor=none;strokeColor=#d79b00;strokeWidth=2;" parent="1" vertex="1">
          <mxGeometry x="40" y="460" width="560" height="160" as="geometry" />
        </mxCell>
        <mxCell id="HkNQrenado_MbdtVK74K-32" value="옵션&lt;br&gt;해당 패스에 자식 카테고리가 있으면 노출 됩니다." style="rounded=0;whiteSpace=wrap;html=1;fontSize=16;labelBackgroundColor=none;fillColor=none;strokeColor=#d79b00;strokeWidth=2;" parent="1" vertex="1">
          <mxGeometry x="640" y="310" width="220" height="120" as="geometry" />
        </mxCell>
        <mxCell id="HkNQrenado_MbdtVK74K-36" value="옵션&lt;br&gt;현재 카테고리의 문서 전체와 하위 카테고리 문서 전체가 리스트로 출력 됩니다." style="whiteSpace=wrap;html=1;fontSize=16;fillColor=none;strokeColor=#d79b00;rounded=0;labelBackgroundColor=none;strokeWidth=2;" parent="1" vertex="1">
          <mxGeometry x="640" y="475" width="220" height="110" as="geometry" />
        </mxCell>
        <mxCell id="HkNQrenado_MbdtVK74K-38" value="옵션&lt;br&gt;패스에 맞는 글이 있을 경우 노출 됩니다." style="rounded=0;whiteSpace=wrap;html=1;fontSize=16;labelBackgroundColor=none;fillColor=none;strokeColor=#d79b00;strokeWidth=2;" parent="1" vertex="1">
          <mxGeometry x="640" y="140" width="220" height="120" as="geometry" />
        </mxCell>
        <mxCell id="HkNQrenado_MbdtVK74K-41" value="" style="edgeStyle=none;curved=1;rounded=0;orthogonalLoop=1;jettySize=auto;html=1;fontSize=12;startSize=8;endSize=8;" parent="1" source="HkNQrenado_MbdtVK74K-39" target="HkNQrenado_MbdtVK74K-40" edge="1">
          <mxGeometry relative="1" as="geometry" />
        </mxCell>
        <mxCell id="HkNQrenado_MbdtVK74K-39" value="/src/lib/Posts.svelte" style="text;html=1;strokeColor=none;fillColor=none;align=center;verticalAlign=middle;whiteSpace=wrap;rounded=0;fontSize=16;fontStyle=1" parent="1" vertex="1">
          <mxGeometry x="180" y="55" width="280" height="30" as="geometry" />
        </mxCell>
        <mxCell id="HkNQrenado_MbdtVK74K-40" value="글을 표시하는 기능과 목록을 표시하는 기능이 있습니다." style="whiteSpace=wrap;html=1;fontSize=16;" parent="1" vertex="1">
          <mxGeometry x="640" y="40" width="220" height="60" as="geometry" />
        </mxCell>
        <mxCell id="HkNQrenado_MbdtVK74K-42" value="NAVIGATION&amp;nbsp;" style="text;html=1;strokeColor=none;fillColor=none;align=center;verticalAlign=middle;whiteSpace=wrap;rounded=0;fontSize=16;fontStyle=1" parent="1" vertex="1">
          <mxGeometry x="60" y="670" width="530" height="30" as="geometry" />
        </mxCell>
        <mxCell id="HkNQrenado_MbdtVK74K-45" value="" style="rounded=0;whiteSpace=wrap;html=1;fontSize=16;labelBackgroundColor=none;fillColor=none;strokeColor=#FF0000;strokeWidth=5;" parent="1" vertex="1">
          <mxGeometry x="70" y="370" width="490" height="70" as="geometry" />
        </mxCell>
        <mxCell id="HkNQrenado_MbdtVK74K-46" value="" style="endArrow=classic;html=1;rounded=0;fontSize=12;startSize=8;endSize=8;curved=1;exitX=1;exitY=0.5;exitDx=0;exitDy=0;entryX=0;entryY=0.5;entryDx=0;entryDy=0;strokeWidth=3;" parent="1" source="HkNQrenado_MbdtVK74K-45" target="HkNQrenado_MbdtVK74K-47" edge="1">
          <mxGeometry width="50" height="50" relative="1" as="geometry">
            <mxPoint x="680" y="580" as="sourcePoint" />
            <mxPoint x="900" y="405" as="targetPoint" />
          </mxGeometry>
        </mxCell>
        <mxCell id="HkNQrenado_MbdtVK74K-47" value="앵커는 상대 경로 입니다.&lt;br&gt;왜냐하면 화면 마다 다른 데이터를 보여주기 때문입니다." style="rounded=0;whiteSpace=wrap;html=1;fontSize=16;labelBackgroundColor=none;fillColor=none;strokeColor=#FF0000;strokeWidth=5;" parent="1" vertex="1">
          <mxGeometry x="900" y="370" width="480" height="70" as="geometry" />
        </mxCell>
        <mxCell id="HkNQrenado_MbdtVK74K-50" style="edgeStyle=none;curved=1;rounded=0;orthogonalLoop=1;jettySize=auto;html=1;entryX=0;entryY=0.75;entryDx=0;entryDy=0;fontSize=12;startSize=8;endSize=8;exitX=1;exitY=0.5;exitDx=0;exitDy=0;strokeWidth=3;" parent="1" source="HkNQrenado_MbdtVK74K-48" target="HkNQrenado_MbdtVK74K-47" edge="1">
          <mxGeometry relative="1" as="geometry" />
        </mxCell>
        <mxCell id="HkNQrenado_MbdtVK74K-48" value="" style="rounded=0;whiteSpace=wrap;html=1;fontSize=16;labelBackgroundColor=none;fillColor=none;strokeColor=#FF0000;strokeWidth=5;" parent="1" vertex="1">
          <mxGeometry x="70" y="525" width="500" height="55" as="geometry" />
        </mxCell>
        <mxCell id="HkNQrenado_MbdtVK74K-51" value="&lt;span style=&quot;color: rgb(0, 0, 0); font-family: Helvetica; font-size: 16px; font-style: normal; font-variant-ligatures: normal; font-variant-caps: normal; font-weight: 400; letter-spacing: normal; orphans: 2; text-indent: 0px; text-transform: none; widows: 2; word-spacing: 0px; -webkit-text-stroke-width: 0px; background-color: rgb(251, 251, 251); text-decoration-thickness: initial; text-decoration-style: initial; text-decoration-color: initial; float: none; display: inline !important;&quot;&gt;- home &amp;lt;a href=&quot;/home&amp;gt; HOME &amp;lt;/a&amp;gt;&lt;/span&gt;&lt;br style=&quot;border-color: var(--border-color); color: rgb(0, 0, 0); font-family: Helvetica; font-size: 16px; font-style: normal; font-variant-ligatures: normal; font-variant-caps: normal; font-weight: 400; letter-spacing: normal; orphans: 2; text-indent: 0px; text-transform: none; widows: 2; word-spacing: 0px; -webkit-text-stroke-width: 0px; background-color: rgb(251, 251, 251); text-decoration-thickness: initial; text-decoration-style: initial; text-decoration-color: initial;&quot;&gt;&lt;span style=&quot;color: rgb(0, 0, 0); font-family: Helvetica; font-size: 16px; font-style: normal; font-variant-ligatures: normal; font-variant-caps: normal; font-weight: 400; letter-spacing: normal; orphans: 2; text-indent: 0px; text-transform: none; widows: 2; word-spacing: 0px; -webkit-text-stroke-width: 0px; background-color: rgb(251, 251, 251); text-decoration-thickness: initial; text-decoration-style: initial; text-decoration-color: initial; float: none; display: inline !important;&quot;&gt;&lt;br&gt;- about &amp;lt;a href=&quot;/about&amp;gt; ABOUT &amp;lt;/a&amp;gt;&lt;br&gt;&lt;/span&gt;&lt;br style=&quot;border-color: var(--border-color); color: rgb(0, 0, 0); font-family: Helvetica; font-size: 16px; font-style: normal; font-variant-ligatures: normal; font-variant-caps: normal; font-weight: 400; letter-spacing: normal; orphans: 2; text-indent: 0px; text-transform: none; widows: 2; word-spacing: 0px; -webkit-text-stroke-width: 0px; background-color: rgb(251, 251, 251); text-decoration-thickness: initial; text-decoration-style: initial; text-decoration-color: initial;&quot;&gt;&lt;span style=&quot;color: rgb(0, 0, 0); font-family: Helvetica; font-size: 16px; font-style: normal; font-variant-ligatures: normal; font-variant-caps: normal; font-weight: 400; letter-spacing: normal; orphans: 2; text-indent: 0px; text-transform: none; widows: 2; word-spacing: 0px; -webkit-text-stroke-width: 0px; background-color: rgb(251, 251, 251); text-decoration-thickness: initial; text-decoration-style: initial; text-decoration-color: initial; float: none; display: inline !important;&quot;&gt;- posts (18) &amp;lt;a href=&quot;&lt;/span&gt;&lt;b style=&quot;border-color: var(--border-color); color: rgb(0, 0, 0); font-family: Helvetica; font-size: 16px; font-style: normal; font-variant-ligatures: normal; font-variant-caps: normal; letter-spacing: normal; orphans: 2; text-indent: 0px; text-transform: none; widows: 2; word-spacing: 0px; -webkit-text-stroke-width: 0px; background-color: rgb(251, 251, 251); text-decoration-thickness: initial; text-decoration-style: initial; text-decoration-color: initial;&quot;&gt;/posts/&lt;/b&gt;&lt;span style=&quot;color: rgb(0, 0, 0); font-family: Helvetica; font-size: 16px; font-style: normal; font-variant-ligatures: normal; font-variant-caps: normal; font-weight: 400; letter-spacing: normal; orphans: 2; text-indent: 0px; text-transform: none; widows: 2; word-spacing: 0px; -webkit-text-stroke-width: 0px; background-color: rgb(251, 251, 251); text-decoration-thickness: initial; text-decoration-style: initial; text-decoration-color: initial; float: none; display: inline !important;&quot;&gt;&quot;&amp;gt; POSTS &amp;lt;/a&amp;gt;&lt;/span&gt;&lt;br style=&quot;border-color: var(--border-color); color: rgb(0, 0, 0); font-family: Helvetica; font-size: 16px; font-style: normal; font-variant-ligatures: normal; font-variant-caps: normal; font-weight: 400; letter-spacing: normal; orphans: 2; text-indent: 0px; text-transform: none; widows: 2; word-spacing: 0px; -webkit-text-stroke-width: 0px; background-color: rgb(251, 251, 251); text-decoration-thickness: initial; text-decoration-style: initial; text-decoration-color: initial;&quot;&gt;&lt;span style=&quot;color: rgb(0, 0, 0); font-family: Helvetica; font-size: 16px; font-style: normal; font-variant-ligatures: normal; font-variant-caps: normal; font-weight: 400; letter-spacing: normal; orphans: 2; text-indent: 0px; text-transform: none; widows: 2; word-spacing: 0px; -webkit-text-stroke-width: 0px; background-color: rgb(251, 251, 251); text-decoration-thickness: initial; text-decoration-style: initial; text-decoration-color: initial; float: none; display: inline !important;&quot;&gt;&amp;nbsp; - xnix (10) &amp;lt;a href=&quot;&lt;/span&gt;&lt;b style=&quot;border-color: var(--border-color); color: rgb(0, 0, 0); font-family: Helvetica; font-size: 16px; font-style: normal; font-variant-ligatures: normal; font-variant-caps: normal; letter-spacing: normal; orphans: 2; text-indent: 0px; text-transform: none; widows: 2; word-spacing: 0px; -webkit-text-stroke-width: 0px; background-color: rgb(251, 251, 251); text-decoration-thickness: initial; text-decoration-style: initial; text-decoration-color: initial;&quot;&gt;/posts/xnix/&lt;/b&gt;&lt;span style=&quot;color: rgb(0, 0, 0); font-family: Helvetica; font-size: 16px; font-style: normal; font-variant-ligatures: normal; font-variant-caps: normal; font-weight: 400; letter-spacing: normal; orphans: 2; text-indent: 0px; text-transform: none; widows: 2; word-spacing: 0px; -webkit-text-stroke-width: 0px; background-color: rgb(251, 251, 251); text-decoration-thickness: initial; text-decoration-style: initial; text-decoration-color: initial; float: none; display: inline !important;&quot;&gt;&quot;&amp;gt; XNIX &amp;lt;/a&amp;gt;&lt;/span&gt;&lt;br style=&quot;border-color: var(--border-color); color: rgb(0, 0, 0); font-family: Helvetica; font-size: 16px; font-style: normal; font-variant-ligatures: normal; font-variant-caps: normal; font-weight: 400; letter-spacing: normal; orphans: 2; text-indent: 0px; text-transform: none; widows: 2; word-spacing: 0px; -webkit-text-stroke-width: 0px; background-color: rgb(251, 251, 251); text-decoration-thickness: initial; text-decoration-style: initial; text-decoration-color: initial;&quot;&gt;&lt;span style=&quot;color: rgb(0, 0, 0); font-family: Helvetica; font-size: 16px; font-style: normal; font-variant-ligatures: normal; font-variant-caps: normal; font-weight: 400; letter-spacing: normal; orphans: 2; text-indent: 0px; text-transform: none; widows: 2; word-spacing: 0px; -webkit-text-stroke-width: 0px; background-color: rgb(251, 251, 251); text-decoration-thickness: initial; text-decoration-style: initial; text-decoration-color: initial; float: none; display: inline !important;&quot;&gt;&amp;nbsp; &amp;nbsp; - mac (3) ...&lt;/span&gt;&lt;br style=&quot;border-color: var(--border-color); color: rgb(0, 0, 0); font-family: Helvetica; font-size: 16px; font-style: normal; font-variant-ligatures: normal; font-variant-caps: normal; font-weight: 400; letter-spacing: normal; orphans: 2; text-indent: 0px; text-transform: none; widows: 2; word-spacing: 0px; -webkit-text-stroke-width: 0px; background-color: rgb(251, 251, 251); text-decoration-thickness: initial; text-decoration-style: initial; text-decoration-color: initial;&quot;&gt;&lt;span style=&quot;color: rgb(0, 0, 0); font-family: Helvetica; font-size: 16px; font-style: normal; font-variant-ligatures: normal; font-variant-caps: normal; font-weight: 400; letter-spacing: normal; orphans: 2; text-indent: 0px; text-transform: none; widows: 2; word-spacing: 0px; -webkit-text-stroke-width: 0px; background-color: rgb(251, 251, 251); text-decoration-thickness: initial; text-decoration-style: initial; text-decoration-color: initial; float: none; display: inline !important;&quot;&gt;&amp;nbsp; &amp;nbsp; - linux (7) ...&lt;/span&gt;&lt;br style=&quot;border-color: var(--border-color); color: rgb(0, 0, 0); font-family: Helvetica; font-size: 16px; font-style: normal; font-variant-ligatures: normal; font-variant-caps: normal; font-weight: 400; letter-spacing: normal; orphans: 2; text-indent: 0px; text-transform: none; widows: 2; word-spacing: 0px; -webkit-text-stroke-width: 0px; background-color: rgb(251, 251, 251); text-decoration-thickness: initial; text-decoration-style: initial; text-decoration-color: initial;&quot;&gt;&lt;span style=&quot;color: rgb(0, 0, 0); font-family: Helvetica; font-size: 16px; font-style: normal; font-variant-ligatures: normal; font-variant-caps: normal; font-weight: 400; letter-spacing: normal; orphans: 2; text-indent: 0px; text-transform: none; widows: 2; word-spacing: 0px; -webkit-text-stroke-width: 0px; background-color: rgb(251, 251, 251); text-decoration-thickness: initial; text-decoration-style: initial; text-decoration-color: initial; float: none; display: inline !important;&quot;&gt;&amp;nbsp; &amp;nbsp; &amp;nbsp; - debian (3) ...&lt;/span&gt;&lt;br style=&quot;border-color: var(--border-color); color: rgb(0, 0, 0); font-family: Helvetica; font-size: 16px; font-style: normal; font-variant-ligatures: normal; font-variant-caps: normal; font-weight: 400; letter-spacing: normal; orphans: 2; text-indent: 0px; text-transform: none; widows: 2; word-spacing: 0px; -webkit-text-stroke-width: 0px; background-color: rgb(251, 251, 251); text-decoration-thickness: initial; text-decoration-style: initial; text-decoration-color: initial;&quot;&gt;&lt;span style=&quot;color: rgb(0, 0, 0); font-family: Helvetica; font-size: 16px; font-style: normal; font-variant-ligatures: normal; font-variant-caps: normal; font-weight: 400; letter-spacing: normal; orphans: 2; text-indent: 0px; text-transform: none; widows: 2; word-spacing: 0px; -webkit-text-stroke-width: 0px; background-color: rgb(251, 251, 251); text-decoration-thickness: initial; text-decoration-style: initial; text-decoration-color: initial; float: none; display: inline !important;&quot;&gt;&amp;nbsp; &amp;nbsp; &amp;nbsp; &amp;nbsp; - ubuntu (2) &amp;lt;a href=&quot;&lt;/span&gt;&lt;b style=&quot;border-color: var(--border-color); color: rgb(0, 0, 0); font-family: Helvetica; font-size: 16px; font-style: normal; font-variant-ligatures: normal; font-variant-caps: normal; letter-spacing: normal; orphans: 2; text-indent: 0px; text-transform: none; widows: 2; word-spacing: 0px; -webkit-text-stroke-width: 0px; background-color: rgb(251, 251, 251); text-decoration-thickness: initial; text-decoration-style: initial; text-decoration-color: initial;&quot;&gt;/posts/xnix/linux/debian/ubunt/&lt;/b&gt;&lt;span style=&quot;color: rgb(0, 0, 0); font-family: Helvetica; font-size: 16px; font-style: normal; font-variant-ligatures: normal; font-variant-caps: normal; font-weight: 400; letter-spacing: normal; orphans: 2; text-indent: 0px; text-transform: none; widows: 2; word-spacing: 0px; -webkit-text-stroke-width: 0px; background-color: rgb(251, 251, 251); text-decoration-thickness: initial; text-decoration-style: initial; text-decoration-color: initial; float: none; display: inline !important;&quot;&gt;&quot;&amp;gt; UBUNTU &amp;lt;/a&amp;gt;&lt;/span&gt;&lt;br style=&quot;border-color: var(--border-color); color: rgb(0, 0, 0); font-family: Helvetica; font-size: 16px; font-style: normal; font-variant-ligatures: normal; font-variant-caps: normal; font-weight: 400; letter-spacing: normal; orphans: 2; text-indent: 0px; text-transform: none; widows: 2; word-spacing: 0px; -webkit-text-stroke-width: 0px; background-color: rgb(251, 251, 251); text-decoration-thickness: initial; text-decoration-style: initial; text-decoration-color: initial;&quot;&gt;&lt;span style=&quot;color: rgb(0, 0, 0); font-family: Helvetica; font-size: 16px; font-style: normal; font-variant-ligatures: normal; font-variant-caps: normal; font-weight: 400; letter-spacing: normal; orphans: 2; text-indent: 0px; text-transform: none; widows: 2; word-spacing: 0px; -webkit-text-stroke-width: 0px; background-color: rgb(251, 251, 251); text-decoration-thickness: initial; text-decoration-style: initial; text-decoration-color: initial; float: none; display: inline !important;&quot;&gt;&amp;nbsp; &amp;nbsp; &amp;nbsp; - archlinux(4) ...&lt;/span&gt;&lt;br style=&quot;border-color: var(--border-color); color: rgb(0, 0, 0); font-family: Helvetica; font-size: 16px; font-style: normal; font-variant-ligatures: normal; font-variant-caps: normal; font-weight: 400; letter-spacing: normal; orphans: 2; text-indent: 0px; text-transform: none; widows: 2; word-spacing: 0px; -webkit-text-stroke-width: 0px; background-color: rgb(251, 251, 251); text-decoration-thickness: initial; text-decoration-style: initial; text-decoration-color: initial;&quot;&gt;&lt;span style=&quot;color: rgb(0, 0, 0); font-family: Helvetica; font-size: 16px; font-style: normal; font-variant-ligatures: normal; font-variant-caps: normal; font-weight: 400; letter-spacing: normal; orphans: 2; text-indent: 0px; text-transform: none; widows: 2; word-spacing: 0px; -webkit-text-stroke-width: 0px; background-color: rgb(251, 251, 251); text-decoration-thickness: initial; text-decoration-style: initial; text-decoration-color: initial; float: none; display: inline !important;&quot;&gt;&amp;nbsp; &amp;nbsp; &amp;nbsp; &amp;nbsp; - archlinux(2) ...&lt;/span&gt;&lt;br style=&quot;border-color: var(--border-color); color: rgb(0, 0, 0); font-family: Helvetica; font-size: 16px; font-style: normal; font-variant-ligatures: normal; font-variant-caps: normal; font-weight: 400; letter-spacing: normal; orphans: 2; text-indent: 0px; text-transform: none; widows: 2; word-spacing: 0px; -webkit-text-stroke-width: 0px; background-color: rgb(251, 251, 251); text-decoration-thickness: initial; text-decoration-style: initial; text-decoration-color: initial;&quot;&gt;&lt;span style=&quot;color: rgb(0, 0, 0); font-family: Helvetica; font-size: 16px; font-style: normal; font-variant-ligatures: normal; font-variant-caps: normal; font-weight: 400; letter-spacing: normal; orphans: 2; text-indent: 0px; text-transform: none; widows: 2; word-spacing: 0px; -webkit-text-stroke-width: 0px; background-color: rgb(251, 251, 251); text-decoration-thickness: initial; text-decoration-style: initial; text-decoration-color: initial; float: none; display: inline !important;&quot;&gt;&amp;nbsp; &amp;nbsp; &amp;nbsp; &amp;nbsp; - steamOS(2) ...&lt;/span&gt;&lt;br style=&quot;border-color: var(--border-color); color: rgb(0, 0, 0); font-family: Helvetica; font-size: 16px; font-style: normal; font-variant-ligatures: normal; font-variant-caps: normal; font-weight: 400; letter-spacing: normal; orphans: 2; text-indent: 0px; text-transform: none; widows: 2; word-spacing: 0px; -webkit-text-stroke-width: 0px; background-color: rgb(251, 251, 251); text-decoration-thickness: initial; text-decoration-style: initial; text-decoration-color: initial;&quot;&gt;&lt;span style=&quot;color: rgb(0, 0, 0); font-family: Helvetica; font-size: 16px; font-style: normal; font-variant-ligatures: normal; font-variant-caps: normal; font-weight: 400; letter-spacing: normal; orphans: 2; text-indent: 0px; text-transform: none; widows: 2; word-spacing: 0px; -webkit-text-stroke-width: 0px; background-color: rgb(251, 251, 251); text-decoration-thickness: initial; text-decoration-style: initial; text-decoration-color: initial; float: none; display: inline !important;&quot;&gt;&amp;nbsp; - windows (5) ...&lt;/span&gt;&lt;br style=&quot;border-color: var(--border-color); color: rgb(0, 0, 0); font-family: Helvetica; font-size: 16px; font-style: normal; font-variant-ligatures: normal; font-variant-caps: normal; font-weight: 400; letter-spacing: normal; orphans: 2; text-indent: 0px; text-transform: none; widows: 2; word-spacing: 0px; -webkit-text-stroke-width: 0px; background-color: rgb(251, 251, 251); text-decoration-thickness: initial; text-decoration-style: initial; text-decoration-color: initial;&quot;&gt;&lt;span style=&quot;color: rgb(0, 0, 0); font-family: Helvetica; font-size: 16px; font-style: normal; font-variant-ligatures: normal; font-variant-caps: normal; font-weight: 400; letter-spacing: normal; orphans: 2; text-indent: 0px; text-transform: none; widows: 2; word-spacing: 0px; -webkit-text-stroke-width: 0px; background-color: rgb(251, 251, 251); text-decoration-thickness: initial; text-decoration-style: initial; text-decoration-color: initial; float: none; display: inline !important;&quot;&gt;&amp;nbsp; - language (3) ...&lt;/span&gt;" style="rounded=0;whiteSpace=wrap;html=1;fontSize=16;align=left;" parent="1" vertex="1">
          <mxGeometry x="50" y="720" width="600" height="310" as="geometry" />
        </mxCell>
        <mxCell id="HkNQrenado_MbdtVK74K-54" value="" style="edgeStyle=none;curved=1;rounded=0;orthogonalLoop=1;jettySize=auto;html=1;fontSize=12;startSize=8;endSize=8;strokeWidth=3;" parent="1" source="HkNQrenado_MbdtVK74K-52" target="HkNQrenado_MbdtVK74K-53" edge="1">
          <mxGeometry relative="1" as="geometry" />
        </mxCell>
        <mxCell id="HkNQrenado_MbdtVK74K-52" value="" style="rounded=0;whiteSpace=wrap;html=1;fontSize=16;labelBackgroundColor=none;fillColor=none;strokeColor=#FF0000;strokeWidth=5;" parent="1" vertex="1">
          <mxGeometry x="40" y="710" width="620" height="330" as="geometry" />
        </mxCell>
        <mxCell id="HkNQrenado_MbdtVK74K-53" value="내비게이션의 앵커는 절대 경로 입니다.&lt;br&gt;왜냐하면 모든 화면에서 똑같은 기능을 제공하기 때문입니다." style="rounded=0;whiteSpace=wrap;html=1;fontSize=16;labelBackgroundColor=none;fillColor=none;strokeColor=#FF0000;strokeWidth=5;" parent="1" vertex="1">
          <mxGeometry x="780" y="845" width="620" height="60" as="geometry" />
        </mxCell>
        <mxCell id="HkNQrenado_MbdtVK74K-57" value="" style="edgeStyle=none;curved=1;rounded=0;orthogonalLoop=1;jettySize=auto;html=1;fontSize=12;startSize=8;endSize=8;strokeWidth=3;entryX=0;entryY=0.5;entryDx=0;entryDy=0;" parent="1" source="HkNQrenado_MbdtVK74K-55" target="HkNQrenado_MbdtVK74K-56" edge="1">
          <mxGeometry relative="1" as="geometry" />
        </mxCell>
        <mxCell id="HkNQrenado_MbdtVK74K-55" value="" style="rounded=0;whiteSpace=wrap;html=1;fontSize=16;labelBackgroundColor=none;fillColor=none;strokeColor=#FF0000;strokeWidth=5;" parent="1" vertex="1">
          <mxGeometry x="50" y="800" width="340" height="50" as="geometry" />
        </mxCell>
        <mxCell id="HkNQrenado_MbdtVK74K-56" value="카테고리성 링크는 트레일링 슬래시가 붙어 있습니다." style="rounded=0;whiteSpace=wrap;html=1;fontSize=16;labelBackgroundColor=none;fillColor=none;strokeColor=#FF0000;strokeWidth=5;" parent="1" vertex="1">
          <mxGeometry x="780" y="720" width="620" height="50" as="geometry" />
        </mxCell>
        <mxCell id="HkNQrenado_MbdtVK74K-61" value="&lt;h1&gt;Scenario 1&lt;/h1&gt;&lt;div&gt;엔드 유저가 홈페이지의 루트에서 내비게이션의 linux 를 클릭 했습니다.&lt;/div&gt;" style="text;html=1;strokeColor=none;fillColor=none;spacing=5;spacingTop=-20;whiteSpace=wrap;overflow=hidden;rounded=0;fontSize=16;" parent="1" vertex="1">
          <mxGeometry x="40" y="1120" width="600" height="110" as="geometry" />
        </mxCell>
        <mxCell id="HkNQrenado_MbdtVK74K-76" value="http://domain/posts/" style="rounded=0;whiteSpace=wrap;html=1;fontSize=16;verticalAlign=top;" parent="1" vertex="1">
          <mxGeometry x="40" y="1240" width="540" height="430" as="geometry" />
        </mxCell>
        <mxCell id="HkNQrenado_MbdtVK74K-77" value="LINUX" style="rounded=0;whiteSpace=wrap;html=1;fontSize=16;" parent="1" vertex="1">
          <mxGeometry x="50" y="1280" width="520" height="30" as="geometry" />
        </mxCell>
        <mxCell id="HkNQrenado_MbdtVK74K-78" value="children post" style="rounded=0;whiteSpace=wrap;html=1;fontSize=16;" parent="1" vertex="1">
          <mxGeometry x="50" y="1435" width="520" height="30" as="geometry" />
        </mxCell>
        <mxCell id="HkNQrenado_MbdtVK74K-79" value="&lt;ul&gt;&lt;li&gt;how to install ubuntu (ubuntu)&lt;/li&gt;&lt;li&gt;how to connect bluetooth (archlinux)&lt;/li&gt;&lt;li&gt;debian based linux (debian)&lt;/li&gt;&lt;li&gt;...&lt;/li&gt;&lt;li&gt;...&lt;/li&gt;&lt;li&gt;...&lt;/li&gt;&lt;li&gt;...&lt;/li&gt;&lt;/ul&gt;" style="rounded=0;whiteSpace=wrap;html=1;fontSize=16;verticalAlign=top;align=left;" parent="1" vertex="1">
          <mxGeometry x="50" y="1475" width="520" height="185" as="geometry" />
        </mxCell>
        <mxCell id="HkNQrenado_MbdtVK74K-80" value="&lt;ul&gt;&lt;li&gt;UP&lt;/li&gt;&lt;li&gt;&lt;span style=&quot;background-color: initial;&quot;&gt;DEBIAN (3)&lt;/span&gt;&lt;/li&gt;&lt;li&gt;ARCHLINUX (4)&lt;/li&gt;&lt;/ul&gt;" style="rounded=0;whiteSpace=wrap;html=1;fontSize=16;verticalAlign=top;align=left;" parent="1" vertex="1">
          <mxGeometry x="50" y="1320" width="520" height="85" as="geometry" />
        </mxCell>
        <mxCell id="HkNQrenado_MbdtVK74K-96" style="edgeStyle=none;curved=1;rounded=0;orthogonalLoop=1;jettySize=auto;html=1;entryX=0;entryY=0.5;entryDx=0;entryDy=0;fontSize=12;startSize=8;endSize=8;exitX=1;exitY=0.5;exitDx=0;exitDy=0;strokeColor=#D79B00;strokeWidth=3;" parent="1" source="HkNQrenado_MbdtVK74K-89" target="HkNQrenado_MbdtVK74K-90" edge="1">
          <mxGeometry relative="1" as="geometry" />
        </mxCell>
        <mxCell id="HkNQrenado_MbdtVK74K-89" value="" style="whiteSpace=wrap;html=1;fontSize=16;fillColor=none;strokeColor=#d79b00;rounded=0;labelBackgroundColor=none;strokeWidth=2;" parent="1" vertex="1">
          <mxGeometry x="60" y="1340" width="500" height="30" as="geometry" />
        </mxCell>
        <mxCell id="HkNQrenado_MbdtVK74K-90" value="http://domain/posts/xnix/" style="rounded=0;whiteSpace=wrap;html=1;fontSize=16;verticalAlign=top;" parent="1" vertex="1">
          <mxGeometry x="840" y="1240" width="540" height="430" as="geometry" />
        </mxCell>
        <mxCell id="HkNQrenado_MbdtVK74K-91" value="XNIX" style="rounded=0;whiteSpace=wrap;html=1;fontSize=16;" parent="1" vertex="1">
          <mxGeometry x="850" y="1280" width="520" height="30" as="geometry" />
        </mxCell>
        <mxCell id="HkNQrenado_MbdtVK74K-92" value="children post" style="rounded=0;whiteSpace=wrap;html=1;fontSize=16;" parent="1" vertex="1">
          <mxGeometry x="850" y="1435" width="520" height="30" as="geometry" />
        </mxCell>
        <mxCell id="HkNQrenado_MbdtVK74K-93" value="&lt;ul&gt;&lt;li&gt;some post&lt;/li&gt;&lt;li&gt;some post2&lt;/li&gt;&lt;li&gt;how to install ubuntu (ubuntu)&lt;/li&gt;&lt;li&gt;how to connect bluetooth (archlinux)&lt;/li&gt;&lt;li&gt;...&lt;/li&gt;&lt;li&gt;...&lt;/li&gt;&lt;li&gt;...&lt;/li&gt;&lt;/ul&gt;" style="rounded=0;whiteSpace=wrap;html=1;fontSize=16;verticalAlign=top;align=left;" parent="1" vertex="1">
          <mxGeometry x="850" y="1475" width="520" height="185" as="geometry" />
        </mxCell>
        <mxCell id="HkNQrenado_MbdtVK74K-94" value="&lt;ul&gt;&lt;li&gt;UP&lt;br&gt;&lt;/li&gt;&lt;li&gt;MAC (3)&lt;/li&gt;&lt;li&gt;LINUX (7)&lt;/li&gt;&lt;/ul&gt;" style="rounded=0;whiteSpace=wrap;html=1;fontSize=16;verticalAlign=top;align=left;" parent="1" vertex="1">
          <mxGeometry x="850" y="1320" width="520" height="85" as="geometry" />
        </mxCell>
        <mxCell id="HkNQrenado_MbdtVK74K-98" value="&lt;h1&gt;Scenario 2&lt;/h1&gt;&lt;div&gt;카테고리 화면에서&amp;nbsp;&lt;/div&gt;" style="text;html=1;strokeColor=none;fillColor=none;spacing=5;spacingTop=-20;whiteSpace=wrap;overflow=hidden;rounded=0;fontSize=16;" parent="1" vertex="1">
          <mxGeometry x="840" y="1120" width="600" height="110" as="geometry" />
        </mxCell>
        <mxCell id="lmg4brPIaGzQlEN9y0-D-3" value="모든 데이터는 상속" style="edgeStyle=none;curved=1;rounded=0;orthogonalLoop=1;jettySize=auto;html=1;fontSize=12;startSize=8;endSize=8;" parent="1" source="lmg4brPIaGzQlEN9y0-D-1" target="lmg4brPIaGzQlEN9y0-D-2" edge="1">
          <mxGeometry relative="1" as="geometry" />
        </mxCell>
        <mxCell id="lmg4brPIaGzQlEN9y0-D-1" value="부모 VHD&lt;br&gt;관리자만 제어할 수 있는 데이터" style="rounded=0;whiteSpace=wrap;html=1;" parent="1" vertex="1">
          <mxGeometry x="880" y="-720" width="240" height="40" as="geometry" />
        </mxCell>
        <mxCell id="lmg4brPIaGzQlEN9y0-D-2" value="자식 VHD&lt;br&gt;데이터 변형이 자유로운 데이터" style="rounded=0;whiteSpace=wrap;html=1;fillColor=#d5e8d4;strokeColor=#82b366;" parent="1" vertex="1">
          <mxGeometry x="880" y="-640" width="240" height="40" as="geometry" />
        </mxCell>
        <mxCell id="lmg4brPIaGzQlEN9y0-D-11" style="edgeStyle=none;curved=1;rounded=0;orthogonalLoop=1;jettySize=auto;html=1;entryX=1;entryY=0.25;entryDx=0;entryDy=0;fontSize=12;shape=link;" parent="1" source="lmg4brPIaGzQlEN9y0-D-10" target="lmg4brPIaGzQlEN9y0-D-1" edge="1">
          <mxGeometry relative="1" as="geometry" />
        </mxCell>
        <mxCell id="lmg4brPIaGzQlEN9y0-D-10" value="C:\User\* 의 데이터는 D:\에 보관" style="rounded=0;whiteSpace=wrap;html=1;fillColor=default;" parent="1" vertex="1">
          <mxGeometry x="1200" y="-720" width="250" height="20" as="geometry" />
        </mxCell>
        <mxCell id="lmg4brPIaGzQlEN9y0-D-13" style="edgeStyle=none;curved=1;rounded=0;orthogonalLoop=1;jettySize=auto;html=1;entryX=1;entryY=0.25;entryDx=0;entryDy=0;fontSize=12;shape=link;" parent="1" source="lmg4brPIaGzQlEN9y0-D-12" target="lmg4brPIaGzQlEN9y0-D-2" edge="1">
          <mxGeometry relative="1" as="geometry" />
        </mxCell>
        <mxCell id="lmg4brPIaGzQlEN9y0-D-12" value="문제가 생겼을 경우 볼륨을 삭제 후 상속된 VHD를 생성" style="rounded=0;whiteSpace=wrap;html=1;fillColor=default;" parent="1" vertex="1">
          <mxGeometry x="1200" y="-640" width="320" height="20" as="geometry" />
        </mxCell>
      </root>
    </mxGraphModel>
  </diagram>
  <diagram id="ZsjLFftWhxsezEU81ils" name="페이지-2">
    <mxGraphModel dx="579" dy="1713" grid="0" gridSize="10" guides="1" tooltips="1" connect="1" arrows="1" fold="1" page="0" pageScale="1" pageWidth="827" pageHeight="1169" math="0" shadow="0">
      <root>
        <mxCell id="0" />
        <mxCell id="1" parent="0" />
        <mxCell id="YPb2kFf-CDWiv7afirvN-1" value="window 7 pro" style="rounded=0;whiteSpace=wrap;html=1;verticalAlign=top;" parent="1" vertex="1">
          <mxGeometry x="850" y="-780" width="300" height="220" as="geometry" />
        </mxCell>
        <mxCell id="YPb2kFf-CDWiv7afirvN-2" value="관리자가 제어할 데이터" style="rounded=0;whiteSpace=wrap;html=1;verticalAlign=top;fillColor=#f5f5f5;fontColor=#333333;strokeColor=#666666;" parent="1" vertex="1">
          <mxGeometry x="860" y="-750" width="280" height="70" as="geometry" />
        </mxCell>
        <mxCell id="YPb2kFf-CDWiv7afirvN-3" value="실제 사용자에게 연결될 데이터" style="rounded=0;whiteSpace=wrap;html=1;verticalAlign=bottom;fillColor=#f5f5f5;fontColor=#333333;strokeColor=#666666;" parent="1" vertex="1">
          <mxGeometry x="860" y="-640" width="280" height="70" as="geometry" />
        </mxCell>
        <mxCell id="YPb2kFf-CDWiv7afirvN-4" value="모든 데이터는 상속" style="edgeStyle=none;curved=1;rounded=0;orthogonalLoop=1;jettySize=auto;html=1;fontSize=12;startSize=8;endSize=8;" parent="1" source="YPb2kFf-CDWiv7afirvN-5" target="YPb2kFf-CDWiv7afirvN-6" edge="1">
          <mxGeometry relative="1" as="geometry" />
        </mxCell>
        <mxCell id="YPb2kFf-CDWiv7afirvN-5" value="부모 VHD&lt;br&gt;관리자만 제어할 수 있는 데이터" style="rounded=0;whiteSpace=wrap;html=1;" parent="1" vertex="1">
          <mxGeometry x="880" y="-720" width="240" height="40" as="geometry" />
        </mxCell>
        <mxCell id="YPb2kFf-CDWiv7afirvN-6" value="자식 VHD&lt;br&gt;데이터 변형이 자유로운 데이터" style="rounded=0;whiteSpace=wrap;html=1;fillColor=#d5e8d4;strokeColor=#82b366;" parent="1" vertex="1">
          <mxGeometry x="880" y="-640" width="240" height="40" as="geometry" />
        </mxCell>
        <mxCell id="YPb2kFf-CDWiv7afirvN-7" style="edgeStyle=none;curved=1;rounded=0;orthogonalLoop=1;jettySize=auto;html=1;entryX=1;entryY=0.25;entryDx=0;entryDy=0;fontSize=12;shape=link;" parent="1" source="YPb2kFf-CDWiv7afirvN-8" target="YPb2kFf-CDWiv7afirvN-5" edge="1">
          <mxGeometry relative="1" as="geometry" />
        </mxCell>
        <mxCell id="YPb2kFf-CDWiv7afirvN-8" value="부모 VHD는 항상 안전하게 보관&lt;br&gt;&lt;br&gt;C:\User\* 의 데이터는 D:\에 보관" style="rounded=0;whiteSpace=wrap;html=1;fillColor=default;" parent="1" vertex="1">
          <mxGeometry x="1200" y="-736" width="250" height="52" as="geometry" />
        </mxCell>
        <mxCell id="YPb2kFf-CDWiv7afirvN-9" style="edgeStyle=none;curved=1;rounded=0;orthogonalLoop=1;jettySize=auto;html=1;entryX=1;entryY=0.25;entryDx=0;entryDy=0;fontSize=12;shape=link;" parent="1" source="YPb2kFf-CDWiv7afirvN-10" target="YPb2kFf-CDWiv7afirvN-6" edge="1">
          <mxGeometry relative="1" as="geometry" />
        </mxCell>
        <mxCell id="YPb2kFf-CDWiv7afirvN-10" value="데이터의 초기화가 필요할 경우 볼륨 삭제&lt;div&gt;&lt;br&gt;중요 데이터는 다른곳에 보관하기 떄문에 볼륨의 삭제로 부터 안전&lt;/div&gt;" style="rounded=0;whiteSpace=wrap;html=1;fillColor=default;" parent="1" vertex="1">
          <mxGeometry x="1200" y="-660" width="371" height="60" as="geometry" />
        </mxCell>
      </root>
    </mxGraphModel>
  </diagram>
  <diagram id="n702_8aH3G7J15lozsbN" name="페이지-3">
    <mxGraphModel dx="1379" dy="913" grid="1" gridSize="10" guides="1" tooltips="1" connect="1" arrows="1" fold="1" page="1" pageScale="1" pageWidth="827" pageHeight="1169" math="0" shadow="0">
      <root>
        <mxCell id="0" />
        <mxCell id="1" parent="0" />
        <mxCell id="ebsA-IH3ss2ZxOx86i3s-1" value="고객사(폐쇄망)" style="rounded=0;whiteSpace=wrap;html=1;verticalAlign=top;" parent="1" vertex="1">
          <mxGeometry x="40" y="560" width="320" height="160" as="geometry" />
        </mxCell>
        <mxCell id="ebsA-IH3ss2ZxOx86i3s-4" value="DB" style="html=1;verticalLabelPosition=bottom;align=center;labelBackgroundColor=#ffffff;verticalAlign=top;strokeWidth=2;strokeColor=#0080F0;shadow=0;dashed=0;shape=mxgraph.ios7.icons.data;" parent="1" vertex="1">
          <mxGeometry x="50" y="600" width="73.48" height="89.1" as="geometry" />
        </mxCell>
        <mxCell id="ebsA-IH3ss2ZxOx86i3s-6" value="문의자" style="html=1;verticalLabelPosition=bottom;align=center;labelBackgroundColor=#ffffff;verticalAlign=top;strokeWidth=2;strokeColor=#0080F0;shadow=0;dashed=0;shape=mxgraph.ios7.icons.monitor;" parent="1" vertex="1">
          <mxGeometry x="230" y="609.55" width="107.69" height="70" as="geometry" />
        </mxCell>
        <mxCell id="y8L4v7pLVjX8jcptjI77-1" value="" style="edgeStyle=none;curved=1;rounded=0;orthogonalLoop=1;jettySize=auto;html=1;entryX=0.981;entryY=0.492;entryDx=0;entryDy=0;entryPerimeter=0;fontSize=12;startArrow=classic;startFill=1;" parent="1" source="ebsA-IH3ss2ZxOx86i3s-6" target="ebsA-IH3ss2ZxOx86i3s-4" edge="1">
          <mxGeometry relative="1" as="geometry" />
        </mxCell>
        <mxCell id="y8L4v7pLVjX8jcptjI77-6" value="포트 포워딩" style="edgeLabel;html=1;align=center;verticalAlign=middle;resizable=0;points=[];fontSize=12;" parent="y8L4v7pLVjX8jcptjI77-1" vertex="1" connectable="0">
          <mxGeometry x="-0.074" relative="1" as="geometry">
            <mxPoint as="offset" />
          </mxGeometry>
        </mxCell>
        <mxCell id="y8L4v7pLVjX8jcptjI77-3" value="납품사" style="rounded=0;whiteSpace=wrap;html=1;verticalAlign=top;" parent="1" vertex="1">
          <mxGeometry x="420" y="560" width="220" height="160" as="geometry" />
        </mxCell>
        <mxCell id="y8L4v7pLVjX8jcptjI77-4" value="나" style="html=1;verticalLabelPosition=bottom;align=center;labelBackgroundColor=#ffffff;verticalAlign=top;strokeWidth=2;strokeColor=#0080F0;shadow=0;dashed=0;shape=mxgraph.ios7.icons.monitor;" parent="1" vertex="1">
          <mxGeometry x="476.15" y="605" width="107.69" height="70" as="geometry" />
        </mxCell>
        <mxCell id="y8L4v7pLVjX8jcptjI77-5" value="&amp;nbsp;SSH 리버스 터널링" style="edgeStyle=none;curved=1;rounded=0;orthogonalLoop=1;jettySize=auto;html=1;entryX=0.99;entryY=0.44;entryDx=0;entryDy=0;entryPerimeter=0;fontSize=12;startSize=8;endSize=8;startArrow=classic;startFill=1;" parent="1" source="y8L4v7pLVjX8jcptjI77-4" target="ebsA-IH3ss2ZxOx86i3s-6" edge="1">
          <mxGeometry relative="1" as="geometry" />
        </mxCell>
        <mxCell id="y8L4v7pLVjX8jcptjI77-8" value="" style="editableCssRules=.*;html=1;shape=image;verticalLabelPosition=bottom;labelBackgroundColor=#ffffff;verticalAlign=top;aspect=fixed;imageAspect=0;image=data:image/svg+xml,PHN2ZyB4bWxucz0iaHR0cDovL3d3dy53My5vcmcvMjAwMC9zdmciIHhtbG5zOnY9Imh0dHBzOi8vdmVjdGEuaW8vbmFubyIgd2lkdGg9IjIwIiBoZWlnaHQ9IjE2IiB2aWV3Qm94PSIwIDAgMjAgMTYiPiYjeGE7CTxzdHlsZSB0eXBlPSJ0ZXh0L2NzcyI+JiN4YTsJLnN0MHtmaWxsOiM2NjlkZjY7fSYjeGE7CS5zdDF7ZmlsbDojNDI4NWY0O30mI3hhOwkuc3Qye2ZpbGw6I2FlY2JmYTt9JiN4YTsJPC9zdHlsZT4mI3hhOwk8cGF0aCBjbGFzcz0ic3QwIiBkPSJNMTUgMmgzdjEyaC0zdjJoMyAydi0yVjIgMGgtMi0zeiIvPiYjeGE7CTxwYXRoIGNsYXNzPSJzdDEiIGQ9Ik0xOCAydjFsMi0xem0yIDEydi0xbC0yIDF6Ii8+JiN4YTsJPHBhdGggY2xhc3M9InN0MCIgZD0iTTUgMTRIMlYyaDNWMEgyIDB2MiAxMiAyaDIgM3oiLz4mI3hhOwk8cGF0aCBjbGFzcz0ic3QxIiBkPSJNMCAxNHYtMWwyIDF6TTIgMnYxTDAgMnoiLz4mI3hhOwk8cGF0aCBjbGFzcz0ic3QyIiBkPSJNNSA3aDEwdjJINXptMCAzaDEwdjJINXptMC02aDEwdjJINXoiLz4mI3hhOzwvc3ZnPg==;" parent="1" vertex="1">
          <mxGeometry x="498.47" y="609.55" width="63.06" height="50.45" as="geometry" />
        </mxCell>
        <mxCell id="y8L4v7pLVjX8jcptjI77-9" value="" style="editableCssRules=.*;html=1;shape=image;verticalLabelPosition=bottom;labelBackgroundColor=#ffffff;verticalAlign=top;aspect=fixed;imageAspect=0;image=data:image/svg+xml,PHN2ZyB4bWxucz0iaHR0cDovL3d3dy53My5vcmcvMjAwMC9zdmciIHhtbG5zOnY9Imh0dHBzOi8vdmVjdGEuaW8vbmFubyIgd2lkdGg9IjIwIiBoZWlnaHQ9IjE2IiB2aWV3Qm94PSIwIDAgMjAgMTYiPiYjeGE7CTxzdHlsZSB0eXBlPSJ0ZXh0L2NzcyI+LnN0MCB7IGZpbGw6IHJnYigyNTUsIDEyOCwgMCk7IH0gLnN0MSB7IGZpbGw6IHJnYigyNTUsIDE1MywgNTEpOyB9IC5zdDIgeyBmaWxsOiByZ2IoMjU1LCAyMDQsIDE1Myk7IH0gPC9zdHlsZT4mI3hhOwk8cGF0aCBjbGFzcz0ic3QwIiBkPSJNMTUgMmgzdjEyaC0zdjJoMyAydi0yVjIgMGgtMi0zeiIvPiYjeGE7CTxwYXRoIGNsYXNzPSJzdDEiIGQ9Ik0xOCAydjFsMi0xem0yIDEydi0xbC0yIDF6Ii8+JiN4YTsJPHBhdGggY2xhc3M9InN0MCIgZD0iTTUgMTRIMlYyaDNWMEgyIDB2MiAxMiAyaDIgM3oiLz4mI3hhOwk8cGF0aCBjbGFzcz0ic3QxIiBkPSJNMCAxNHYtMWwyIDF6TTIgMnYxTDAgMnoiLz4mI3hhOwk8cGF0aCBjbGFzcz0ic3QyIiBkPSJNNSA3aDEwdjJINXptMCAzaDEwdjJINXptMC02aDEwdjJINXoiLz4mI3hhOzwvc3ZnPg==;" parent="1" vertex="1">
          <mxGeometry x="252.32000000000005" y="614.78" width="63.06" height="50.45" as="geometry" />
        </mxCell>
      </root>
    </mxGraphModel>
  </diagram>
  <diagram id="XLDuT_JftL67iHdJMx58" name="페이지-4">
    <mxGraphModel dx="1379" dy="913" grid="1" gridSize="10" guides="1" tooltips="1" connect="1" arrows="1" fold="1" page="1" pageScale="1" pageWidth="827" pageHeight="1169" math="0" shadow="0">
      <root>
        <mxCell id="0" />
        <mxCell id="1" parent="0" />
        <mxCell id="YGZcwwIvDnsuVoYYlr5_-21" value="" style="rounded=0;whiteSpace=wrap;html=1;" parent="1" vertex="1">
          <mxGeometry x="40" y="390" width="200" height="290" as="geometry" />
        </mxCell>
        <mxCell id="YGZcwwIvDnsuVoYYlr5_-15" value="Windows 7" style="rounded=0;whiteSpace=wrap;html=1;verticalAlign=bottom;" parent="1" vertex="1">
          <mxGeometry x="340" y="220" width="280" height="620" as="geometry" />
        </mxCell>
        <mxCell id="YGZcwwIvDnsuVoYYlr5_-7" value="세션" style="rounded=0;whiteSpace=wrap;html=1;verticalAlign=top;" parent="1" vertex="1">
          <mxGeometry x="360" y="240" width="240" height="300" as="geometry" />
        </mxCell>
        <mxCell id="YGZcwwIvDnsuVoYYlr5_-3" value="관리자" style="html=1;verticalLabelPosition=bottom;align=center;labelBackgroundColor=#ffffff;verticalAlign=top;strokeWidth=2;strokeColor=#0080F0;shadow=0;dashed=0;shape=mxgraph.ios7.icons.monitor;" parent="1" vertex="1">
          <mxGeometry x="80" y="420" width="120" height="90" as="geometry" />
        </mxCell>
        <mxCell id="YGZcwwIvDnsuVoYYlr5_-5" value="RDP로 관지자 세션 접근" style="edgeStyle=none;curved=1;rounded=0;orthogonalLoop=1;jettySize=auto;html=1;entryX=-0.006;entryY=0.557;entryDx=0;entryDy=0;fontSize=12;startSize=8;endSize=8;entryPerimeter=0;" parent="1" source="YGZcwwIvDnsuVoYYlr5_-3" target="YGZcwwIvDnsuVoYYlr5_-12" edge="1">
          <mxGeometry relative="1" as="geometry" />
        </mxCell>
        <mxCell id="YGZcwwIvDnsuVoYYlr5_-12" value="백그라운드 프로세스&lt;br&gt;관리자 세션" style="html=1;verticalLabelPosition=bottom;align=center;labelBackgroundColor=#ffffff;verticalAlign=top;strokeWidth=2;strokeColor=#0080F0;shadow=0;dashed=0;shape=mxgraph.ios7.icons.window;" parent="1" vertex="1">
          <mxGeometry x="395" y="430" width="170" height="70" as="geometry" />
        </mxCell>
        <mxCell id="YGZcwwIvDnsuVoYYlr5_-1" value="사용자 세션" style="html=1;verticalLabelPosition=bottom;align=center;labelBackgroundColor=#ffffff;verticalAlign=top;strokeWidth=2;strokeColor=#0080F0;shadow=0;dashed=0;shape=mxgraph.ios7.icons.monitor;" parent="1" vertex="1">
          <mxGeometry x="395" y="270" width="170" height="110" as="geometry" />
        </mxCell>
        <mxCell id="YGZcwwIvDnsuVoYYlr5_-4" value="포어그라운드 프로세스" style="html=1;verticalLabelPosition=bottom;align=center;labelBackgroundColor=#ffffff;verticalAlign=top;strokeWidth=2;strokeColor=#0080F0;shadow=0;dashed=0;shape=mxgraph.ios7.icons.window;" parent="1" vertex="1">
          <mxGeometry x="405" y="282.86" width="150" height="51.43" as="geometry" />
        </mxCell>
        <mxCell id="YGZcwwIvDnsuVoYYlr5_-20" value="OS에서 사용할 가상 하드 디스크 마운트" style="edgeStyle=none;curved=1;rounded=0;orthogonalLoop=1;jettySize=auto;html=1;entryX=0.5;entryY=1;entryDx=0;entryDy=0;fontSize=12;startSize=8;endSize=8;" parent="1" source="YGZcwwIvDnsuVoYYlr5_-17" target="YGZcwwIvDnsuVoYYlr5_-7" edge="1">
          <mxGeometry relative="1" as="geometry" />
        </mxCell>
        <mxCell id="YGZcwwIvDnsuVoYYlr5_-17" value="VHD 사용자(자식) 볼륨" style="rounded=1;whiteSpace=wrap;html=1;" parent="1" vertex="1">
          <mxGeometry x="360" y="610" width="240" height="60" as="geometry" />
        </mxCell>
        <mxCell id="YGZcwwIvDnsuVoYYlr5_-19" value="데이터 상속" style="edgeStyle=none;curved=1;rounded=0;orthogonalLoop=1;jettySize=auto;html=1;entryX=0.5;entryY=1;entryDx=0;entryDy=0;fontSize=12;startSize=8;endSize=8;" parent="1" source="YGZcwwIvDnsuVoYYlr5_-18" target="YGZcwwIvDnsuVoYYlr5_-17" edge="1">
          <mxGeometry relative="1" as="geometry" />
        </mxCell>
        <mxCell id="YGZcwwIvDnsuVoYYlr5_-18" value="VHD 관리자(부모)&amp;nbsp; 볼륨" style="rounded=1;whiteSpace=wrap;html=1;" parent="1" vertex="1">
          <mxGeometry x="360" y="750" width="240" height="60" as="geometry" />
        </mxCell>
        <mxCell id="YGZcwwIvDnsuVoYYlr5_-22" value="스크립트를 이용한 제어 자동화 프로그램 배포 및 실행" style="rounded=1;whiteSpace=wrap;html=1;" parent="1" vertex="1">
          <mxGeometry x="50" y="540" width="180" height="60" as="geometry" />
        </mxCell>
        <mxCell id="YGZcwwIvDnsuVoYYlr5_-23" value="특정 컴퓨터의 볼륨 제어 및 &lt;br&gt;전체 보안 업데이트 적용" style="rounded=1;whiteSpace=wrap;html=1;" parent="1" vertex="1">
          <mxGeometry x="50" y="610" width="180" height="60" as="geometry" />
        </mxCell>
        <mxCell id="YGZcwwIvDnsuVoYYlr5_-24" value="업데이트&lt;br&gt;복구&lt;br&gt;자동 설치" style="text;html=1;align=center;verticalAlign=middle;whiteSpace=wrap;rounded=0;fontSize=16;" parent="1" vertex="1">
          <mxGeometry x="385" y="460" width="190" height="20" as="geometry" />
        </mxCell>
      </root>
    </mxGraphModel>
  </diagram>
  <diagram id="CxhcI4-EUG2Lb8nQbnl4" name="서버 아키텍처">
    <mxGraphModel dx="2237" dy="2029" grid="1" gridSize="10" guides="1" tooltips="1" connect="1" arrows="1" fold="1" page="1" pageScale="1" pageWidth="827" pageHeight="1169" math="0" shadow="0">
      <root>
        <mxCell id="0" />
        <mxCell id="1" parent="0" />
        <mxCell id="UlfhOVo6xCXtAoO-9Ha_-112" value="리눅스, CentOS" style="rounded=0;whiteSpace=wrap;html=1;verticalAlign=bottom;fillColor=#f5f5f5;fontColor=#333333;strokeColor=#666666;fontSize=20;fontStyle=1" parent="1" vertex="1">
          <mxGeometry x="1470" y="280" width="940" height="520" as="geometry" />
        </mxCell>
        <mxCell id="UlfhOVo6xCXtAoO-9Ha_-73" value="웹 서버의 도커 네트워크 구성도" style="rounded=0;whiteSpace=wrap;html=1;verticalAlign=bottom;fontSize=20;fillColor=#dae8fc;strokeColor=#6c8ebf;fontStyle=1" parent="1" vertex="1">
          <mxGeometry x="1480" y="290" width="920" height="470" as="geometry" />
        </mxCell>
        <mxCell id="UlfhOVo6xCXtAoO-9Ha_-74" value="" style="shape=image;html=1;verticalAlign=top;verticalLabelPosition=bottom;labelBackgroundColor=#ffffff;imageAspect=0;aspect=fixed;image=https://cdn1.iconfinder.com/data/icons/social-media-2106/24/social_media_social_media_logo_docker-128.png" parent="1" vertex="1">
          <mxGeometry x="1921" y="690" width="38" height="38" as="geometry" />
        </mxCell>
        <mxCell id="UlfhOVo6xCXtAoO-9Ha_-70" value="&lt;div&gt;&lt;br&gt;&lt;/div&gt;&lt;div&gt;&lt;b&gt;Traefik&lt;br&gt;웹 서버&lt;/b&gt;&lt;br&gt;&lt;/div&gt;" style="rounded=0;whiteSpace=wrap;html=1;fontSize=14;verticalAlign=bottom;fillColor=#d5e8d4;strokeColor=#82b366;" parent="1" vertex="1">
          <mxGeometry x="1495" y="300" width="115" height="400" as="geometry" />
        </mxCell>
        <mxCell id="UlfhOVo6xCXtAoO-9Ha_-71" value="" style="shape=image;verticalLabelPosition=bottom;labelBackgroundColor=default;verticalAlign=top;aspect=fixed;imageAspect=0;image=data:image/png,iVBORw0KGgoAAAANSUhEUgAAAL8AAAEICAMAAAA5jNVNAAABxVBMVEX///83q8jvkyXl5eVZWVkzMzOv3en20qIAAADS4mGWAADX7vTwjQDMzMwuLi4nJyfk6eyTk5MgICAPDw8kJCQZGRnExMTVmZnk6u+4uLg2NjYYpMRWW1vvkRuZmZlGRkaoqKjqzMyHytz5kQD29vaEhITO4E/vjxKRAAC14Ovu7u4crdDC4euMAABNTU1ubm7/1Z9fX1/Z2dnQ6/Lo0b7m3NPpyq/qwZ3tqWfj8/f/26mj0+L2x57rtoZhUlJDr8r65cuPopa+m2vsr3V8fHxnu9J/MjJzQEDapaXg65v0+N2TzN2mn4NNqb2Ho5vEmmT99u3umz7rs36wnXmGKCiCRVFnTEyQFRW7cnLSkZH/79rX5Xf43bnZ5n3m77Dt88fYl0tspq2foIl4pabNmVrnlDDtpFrv3d2lODiBLCzdvr7Uq6pmk6hFmrRROztifJFfDw9wZ3mnR0eyZGR8UmBjU2e2bW13PDzCr7WfHh62zda9goOBqbohaHkWRVEPLjYpfpNjfYN9laZqWkaVf2I3LyTbu5CpvrLFxq/j7aTFaQC+ezS1fD/Bzmy5wn+zuoeFcFVRRTaBTxLKfB86IwmrZw20wrM1xguPAAAay0lEQVR4nO2d+X8aR5bAQYDA3KdshBAIgRE0Bgl0IawgS8LjBMnWkcSJrCSWbMmOc8zGnp1sPNnJ7MSxk2xmdjPZyd+7dXXTR/VR1SB/dj95P9gIuqu+79WrqldHVzscv4mOFEV53SAWpNoMTaTzsdJ2Y6Ge88QTQFIDgX9FJnP1hcZ2aTqfngi5qq8bGEu1mc6XGrlUIhWPJ5ORSJgqHlHgH5FIMhkHKsXrjVI+3XxdilRD+e06wE5iZkAVjyNLJ6GdFxqNxjYQ8F9jYcFdz4VTqECAllBJj2dyEmoDbkol6tv50MVq4cpvh1PxCMDABGH3dgx4RdNVNXT1YtXVBE42XWrUI0hzkMIkUCQciaeSjXzzYuBDpUgKoSfjCU9jOs1pu2pzIh9rTCaQHZASqfj2xJBZtZIPxxF7yrOdbw6jYXFN5LcnE0gJTzgej420scqnIp7JcDy1nR6uwxab+UYKpu2JJPJDTVkhjZQHZLAdGk3qzekcUMGT2h5N8g5HPTIZiU+PsoBdsXjEk2yMJO1iLuxJlEaStFzyKU98JLkA/NSIPEch1UlPKj/8ZAF+3DX8ZClSjXsSQzfUQsSTuhh8UJETnviQa1kpeXH4oA7Ew+6hJphOTSYuqHtHshCO54eYnCsxmRh91y6TIqgCQ+whR9MiGMlEKrwwtMS2I5GR9Yl60ginhlXioUS4zn5Xsd2qjXc6nfHxSq3WCrQZG5QiCFXYM6VKhLRmYMACxobuRsw4eGvXOoWeM4PESf7H0u0VOrW2zm2ufMmdA7JAks8nk/mh4JcisDcJlXL1uhtLPdeg9i+AHIE7DQSqURgPqO58NLGQE1OHyUPXAaPoYeA3E8mYI7QgpU7y+PLxJ0r2cYhuRK5UojcuFUTxT9fm1MnX045QKjI9BP562F1tqJJ3u6c+9s/5n4jX1ArW2Qc6dDvILS9fm/P731BnUF+ogipsHz8dD8c09ID/rt/vv3YZwfeY2SUdei3HJ9dASv7fTWmyyJXCkbxt/rAnp6V3u9+AmfqvFdsFbnisQfcxSultLT/QwBOxi59PTtLwp26iXP2f2oKHItzFKdH43Z5k2iZ/PExxHsB/Def6mV18p/MdnBLFgUABhHO26J/4/Z9T8d/Fmd4V7PP/3q/vQG7Pv7xnIwy6DKx8k5bu1Ns40y84eHH/IOslcFJ+Gr77c//ctSfmoHRBLQOV/w0/n/uAZr/TwoFEsdXpYhWIA9EyQuV8bYYPv6rXsEm196Zo0Iyza9bvwgud48ogCDReTsmB5miGQn46xzcWe4qS1XQsUIj5fw+Z+mJE0271u4Yq1LR5FHsZyYGoNRjxP+PBn0Hmv0sz/5ckR2emoApksEWpxi/Qs6lknH8gjQEtK9S6XnvEwf9M1yhTyChz/n8tUAq23aNqkKEYH0sg8xkIRaC8S8nqdyivP7LjFw3NP/f42R+fRel31goU0YuaoQKF9559NafThE7hfp6d/wmyybvUJOcev3/58uVP9G4tjmvEsAYGJi7fek+nrpECYG+Cbs3ptWlf+p/dAvjv6zulRgED60OpQHPM6WQHa8DcLS5+ap84NfcU4l82SrKtxNf1ffHyf4P2mNPpwyD/n5j5H/n9X1Lxv/wK0huZH0hNwW+aWQ0WwLM5egGAznJO11f1ZWGKGpFMzb1/2cz8QOT4LdO82p/AFL/SKQD3zZvs+EVq2A+63scWzO9wtFjM73A8h0Z5j14AIFOO6Y8mNW4G3vinW0hMbpdVYeL9xWZIfwayhqqUXg1w59iD0DQ97v/YP4PENEF145OOAZnWmwIOoAJ4phMuuuvsc695Kv8b/meYH17SDE2EdOekAxVF25+PTUOJ6VzfHr9l1ATV2ZcDpmn8U2/PXRbNXwxh0bm/HQi0ahXR/ZsYH4jO5eOwAG7pxet19qlEGj8Ix+eeiOYPhQwVKAaQAB3gX3kRP6bjCeOoAJ7qjGOGxX8X9ORQgEu4JH6dqhAQhfAD74dVQIdkHBUA6AL8H1MKgIOf4v8wFnkK8WHbKeHrtSoKfnThRKjanNC5utZqPXnyBLZAtCiIw/8nKPYHHeF7YuUV4XUdSMsPK7tehQfXXZmZeaIThtbZl6607T9oO/1z7wP85oCoCT9Y4G+Sq4sTdG9DteXRzIxO0JtjH0Fq+184aEfNj8qidI8oSvww76JUWvTc2uhKwq8ddPAsxTTU5seB7MxMFBGR+lt16Vi0LfGj/kus7jqGxFc/mnlMHfTVeeahVRWYDCRuzTwiRCbVd8CPh8guI3zR2WaeUicTOaovyFDlQH7CLxEZ4g/cn6gLd1/perGobPQpdS6II3wDsq0w/9uE3yXxO1wgItOLg2TmD6gXW7QiXfmMzGwo2tB6nou/KSsA7D1wIFSBYh7Ry/EDJsNH2cVf+ylzKRytD5KS2nuAfG0tpG9Xai0EBCKgWjtgDCCr6r0/aCezOM0PHFaqweJ8rf+LXsXSiBZdVGn1M06nIDhrhh4kc7V2T5yMk4VB/OvYoZzSe/wfC4Rfs4CoFHxRpf/Zv//5m2+++fNfjKqAvKa0u+Js6KAX5hi7SJJGCkyJ081wvrmiGJUY4n/9jU+UmG4dUFSUQMYpvKP0oJytbSMTSIE5kiScr7Uwp0Pw/8Mnk6lKi1YJ2i2FVODco2isN6Zs44NGyF2fIitU/nfgaktfUkDHJ8jcT+WBTyF/hRVZeWVRPshHUnAO5tP9c2gR1R4+kBhZ6vJfQxOxPWlcOF6hWLQo/lxR4vs86IeWuA2i2G5V1PTjlR7MQfKgu5/nbdMDeapcq5Nnq7ZoezBv1Vfx+7S4Wn4yWU0y5F14UcsnovMj6SvzlCzaDigm3b5W4U+Z44/3SRafoQwf88z6U6X3xTvvfCrO5PcsGHK8VvWq+I+PamY3YfeB8ulN/82/Dove4VCuRFjAjx4de1/K6b/1eo+Olkzu6shWPgRnd3j8yhUV8wKIHm14gbz4DsP//OLlmhcqcGR458D82E4shG99ZJ0/0zdRoHZ0BPG9a2vely9fgv/W0J/HxgpU+qpsTKO2t/bIh717V69efUv3uqJ6RcvE/HsYXyvHxxv9zjiKYCm3qTLJmITdEPpN/PESEt0r25oVuY4y/4oowIc7/cKxDj6Q+VdwrbjXKxQ0inTV/CYxIkS++gH6eBV9/tA6v7NAmCFvv1DoAel2nWgTU2Z3Xp/f6x2kpVCkr8kiUzHE/xBDD/j1CyBAWxHtQmDqmnvPiH+esuMDKEJb+O6Yml/k/wB/1qvDLcZNPkb8x9bT6pub/xL2n7eMC4CRX/heWWeV/m89HZ0FeyyYWGx07hkWAKv9uxLuBmjhwFj5SNRh/nuGDUM9A/wfLsnMLxXAveHwO7vL8/Pzxxu4ecZj/Q0v+IoJ34h/T2l+qQDofQAzP+z9M2JoKs5VPH/1apcpIYMA4k1s/jelLz66qigPu/xOWfcv8neYUzE1/97gq0sGBUBtPy3nLvKPM29w1eX/QG1+4wKwxy92o7Wh8ZPaelXx5SVNkUhC6X9fKz8x/w+KL0mH8Kb28qU7PLskpdxFfuZapMdPNb/UI2gKYP3H/+TiF/2e2/7Cw2UqP2kr1eHah9pKAWX1x19+4dqlKnb/YhjDXH+Fn3788boW/yO9YIFeLFvZsezmjV2BWQex+MU4rGd+i4xd6N7eHBsrH2j5L+nFCqRPVpXL9fLYWLY8O3YH6sCkBI5fQJAKFWhbxwe5PDjcnw3CjLX8uuaXegUtPxSgQ/bO6QmDDplC0VFDH5x9+qZEHfb7gD2LMqXYX9f8Yq+sqhjHhJ/oUH7IoIP5llwlu/BgZ8CO+Netm18qAOVvG8ExhbDqYJn9RMVO5zeKE6jjmCMVP9YhGLy/c+Icjg6Q/fRhUM1O5f/QMFCmjWP2KPxEh9n7Ow/s6iAIu6cPQZFq2an86rjZvAD0+CUdDrl1AOw37mT12Gn8qmGLpQIw4B/ocJtVB8i+OWbEjviV/Zdm2KIRyjimbJiDpMP+5m2rnRxgv715ZsZO4dcMWzTykbZ+mOMTHcqzZ+YdNfj5NuicLLBr+SnDFo1o26d9a1kRJYx0kHWsFkXJb25+2jjmnIGf6EAJNlQdKw//WxbMTymAVUZ+ogMKNiR6WufEyk8dtmhEM4454OAnOjwkCgiGjaRFfp1hi0bUpbRu3V3VciYWwCxnAnJ+nWGLtgBUteQ6P/8swT8x6UOs8BsFboYFYId/F/Pf5k1Cxm8QN6vkB2U9scEfvI3df8c+v3Xzq8cxK/z85VNUAYRNziZAxm/d/FI/QWrKsg3+Q8x/3zY/g/nV4xgb/FncgArcCUj8poEbpQBIU6UegLHw7wu2mk+J/6O/GQ1bNAK7iqv3/v53XBr8/GNZxL/LzR/cwECl6en/sm5+2FXfO52OkUMqrvMrMGuv+R8rE3yfrx6bvqc7bNEWwN+mSx6fjxy/cBzkrX+4A+Bu/oNHKP8i2oXQOLVsfofjVze6R3xs4JyTIHgCq+8p790bOPdtvI0ibx3f0cS3TIp/c7aAZdiBCYd8/NktnLeL7GFhegYgju8RN05zNiGoA+PtvoLPcd4LGIXtULs0vkncOS3c4Yt/dyD/Q87qU9iTuYKPcScfuavp2Ns7OjoS+Oog6oA5u9/sw5N57/zxBjE/65F8eXzbi3m8a4GvDc/CpRvhjOdWoDveSLH2MgFBmPdwI/yXeOvRPGcfigIIgbPun0obQYACMVZ8xzTAP1wj6/6cENn7kJ+v+SnfEDfirB36fMz4sNdIrXklfi4GHABxtl03utJGFt8Ldv7j//b9bJcfjYC7vPyCyP/S591gxd+b9/p8ov5rAqcTjwnc4RvmhxZc+xn4MSv/hnftW9934uZBwckXg5Vt8O8Iay98L16+PPzZBxjY+dEO1J+//Q6UwjFn+2mHP7spiHt4D73eI1Z+XACkD9jLcMaQQYE/fN4XSOD23Rq7+4MK4JW2ADvanPHDWNBG+D+7S7J/yWN+hwNWHJxAus07hLLDn/0H2X7M4f24AOZJAaQCvDMIdvjHiPmXjnisjzRw5HASP3FPgNjw/19w3raOAZ3AafzDDj+v72X/h33YopEISuOfnPhoAoJ/+gFWAJsHp6JxzD85p+/H7PS/QPlg+acde/jAg0r5anVxfT9YznLowB3/ZMvB7OryUnQI78lwAYlecS0DHViXgLjizyxgH1tdWboSjcKs7eJXXViiQIfFldWxIENJ4PjfevuTLZeDwfP1ZZEdit2DuF1ywUpsgZKAWpiqYXn8lUXkZ6sAPRodsA+dX1QiurS4sr66X4Z6lKEmOvsvEP8Y/Ud4VxliB4P7qwcry0uuKyp0JDYrQFHLL2oBC2NpcXll/WD1fP8sG1RL+WwfzT+s7p+VNT9mz/bPVw/WV5YXATcVXJQR8cv1gKpcuQL+WBIFfAbfRJ/DB0qugB+jst/Ij1fwjWbp2+SvmqZvJIjfVgp2K4A9/tpr57eXd/P/OP8w7G+vAVp0XbFQx/TErv+DdmFp0Q7+HuoPuXVA/E1O9Gh0aWVrLLhqh/8oiDr1sa0VroLoOOGDgFzoy+vnKN7K7tvhF1dP4ZbPM6DE0hVLbbYo8LHAzHMmchigHJzLoqysHf4VefCFgpT9LbGrt6AG2rXdt8RNgpJzTYAYtMO/uK+OmXGoNXa+Nej6qarAb6voodJeVf8K2HGjIORglQSFqiAJ1D87DWj1ytLyapkS92M1guX9863160CVRRIYQAGfFgHSysE63j+wCsKcZdUF+Ir1rfP9LAoCKREg8Nn99cVo1A4/NhOI+2k6iGFkmYSRyugNfIefnBHOqBcYRa6wuu0fwHbPZa8DGBT1Egr7mUaRXPtPYLmWz9dlzZ0N/qLCXeVjF0v8ZP+PtclH2RhG1VIPh19UAjYTB7CZQF5rhFa+gfdfGS5gZ6WatHVdZwwzRH7JnaRWY0z0ZezNMinPPsD8p7NZ9U9SjRiDDcDKomGLPHT+gRqwPEBzsrgMG5P1g62trVUk4MP6+nWyf++B6peD9fUV2CIB6ugVCz0JP7/l6D9Kkyo5UwB3ABqxmvZF8NOF7P/s2Uvl9fGTx4+6NpN5XfxNwm93BGOD38bYBUT/xH84RwBE7AQQ189X1J0Jg3TE/fMMEbQKHXSZ62PGO/4NBfS22dWVRabmQhLpmUcLETSVHc0ZB4/58R0O0MFmB5OqbEpIT1/sstUjEqmcoTglSHkGlUH28OZD2MdnoRJR61o8l55+tFwBomjATiJFFF7YG/5CBQZxM9v4qyp7ZNbMgaTx18F5VrHKENyyiQ8U2C8r4y2oRRZHLUtRcQCmleeyh08zUd3LYPwBI6nzM0pgG6Q8gM0uW5QVFBI1wvgLTiPDeIYIDIS2VvezTrnsBvdX4UBNftkKiIrOcfxHHX+B8t4YBr6jc7tsEAFL8eRAwDck9hRFuDGrvUx/4WA4ri9KLePcnGVb+ZrdUT3DJmwyLmMHz2xNvMmlnXEKu3dmGbagzG5qHsETHjIokA2e3RCGhY8PUBN2D7MWN3KXNdZHChxatAAY+Ny/LQhG5/8wCgEQHtzRnYaQZZ493KU+ACnsbmZNV2Ah/Cm63/D8KDaRWnKgAn6KkUYBW6TZ+zsn+o+gCsIJup2qBFz3hY9/dvH9GfNDji1LR8HgPDndvJ+dnQ0OGpJgcHb27OHhDfPn+uHT7jcOH56B25X3B/fv7DyQPbrKdH6giajPXhEg5smDG6c7h0B2Tm88ONkVGI4kgNfumtw/RPfXniAo42DhZrg/Y+W1MZZFfbjf6CVjdmg3k2iP9xu1DNN9OI/wsiPDdR/1EaAXwD9cfEfhgvkNDw/kEL4zyLjF7PBSdrnYFmiIh/cSYT6+yo6Ynb3KIxfJP3zz85xfyC2jMP9FFsAozH+BNWC4ocNALqoJGnbbLwrfOY7sMiL8C6rCo/IeKExnAHLiDzlwU8ro8Ufl/FhGXQUyww37tTLiOG7U+KNVILNrY6XIqrSHevChXIST+XneR42sy/HxiPox4dW81zu/MVr6Pfg058kofCjzPX5c1tZqnZls4Mfhfx26AsLu4MT60eFL58h72Y4yN8f/VfbSgI1R4csP8v/VOTwNMide+TsP5kfUCnmV8mpIDVGmt6R+Y8NF4AOTvWI631aPHk41qF5ZsjEC/A01P2zsxmkv3mCAzxRItKlSYAT8Wnz0goVWgbsQMl1ZrKlUYPg1YE9je+mnWo9dhUym21EG+iPmV78TSJlDre+0rkMmk+lVtKMUuXFGbn/tBcVav2d6YDW4oFugsKtzGDq+snx1u8h2rVPoQUokEjP+q1foqF84p1RAakZH0QEcSambx1jFNnx3egfL+HitFmhb2QO2Z2Ide7J3PELrEDmeH2H4gFxofqTxITwzYISyIb5U5zf5fyCu9HQMCn4+oRprbMvfc121/eT4aKVZT8QjUJLolDxXIhKOyM7Ya/gSvO9dvhDJ+8IeIuhsse0I/JgQf06nPJ4k65lpSplolEZngAkfxA1HkslkKge/qCN1EuKzLjGgTthtJ4e0LxxnO7OPRRBt3D2dz+fTyEqNsML+9vkXYIJ2MfUkBNzDk5yWfdP0RcLhhPSNff4c4J80v4xPIJ4noviq2cgtpBUX2OOHOYyMHxZuxOhoFvv8iVHyT6rdRy22+Ysj5Ufunze4wDa/KzVy/rTBBbb5myPnj4+UfyLOxt+uAWmp35AeoHwJZfT86SSVX+yRqyD2GkRbrZ44SMz0OlKn3emKXxbUezkR/4TqS/lzphT+4nTeGno+B2QShSY5JFIckk8kJmFYWGz4QOwlHq3VVkxiZcgSXEc+ls90xQ09TTdMMTxIXGxFXZ6ELHzT8lcjyZSlAqn6wkBwaBVGkiCWaoKgJTwJ6wYKtkgDQlnTAx6D3/glG8WTuap6RJW6mDjUaXDYmIbflQK/J5oW+Is+GNXiLFCAGxGPUUZ1wgdCXZx9Cjtwn8xHwXcYE9pMEa8U91vtdqCDi4dsKllAQTPGx4kTfp/CpdT8IZSntUOImyUgKPzxlJCIFQ3xJxyTYU8knkikSHQXANDSXFoAv4Ub/pORNmDXiFLwczUGU4SJhxdQ4nlyUcKIH4erPqMar5I8pf4i/kg6Hk6UQrLQuqjcrEYW6eWbeLCLyZamKe2PEX8e4SdCDuuiy+9xJ93GxYj5Fdvf0d4b2Z5INv5p+Fs4zjSg1OePmLUCeLe64iu0gVq2M4OJvwSvDnvYHuPX50+ZjcrQZl3V27dt8DeQ17IOhvX93/QoabhEr94Fw8+/AEGSzKdQ6vKnTNtgZH/lV2jXQWZgQuv8ddjWpthPcdTlT5gWJKysqo0YaPuxbFueVf5iDuIn2E8PN+DXXtvuFHpwU0EXzpAHUIemfPgGv3tWViWs8S8UUU+dyLPjM/DXuopIB//Rl/l/m/RpsoKzxO/JTUL8pDrOGy6/zqtN4UpLrw+kQKI7xaZUa/zhJArzePAt83dF3G6v25Wtumj0Uexrs+g/edTycylgkZ8EC1L8025VClgfJX1X2Z5arb+o64rUHexijR8HNsrGBjaf3cC4bB2s11dv57fcfm7HrfT43Pw4dlZe1RloVGwDobW31tv/BuSIsB+ibI2/q4nUcFtv9uwiS/8La3KSeSbWGj/qVlWDW1VTb5ff4YYKxFl7YMSvmr/V4Vc6d5sSvdniRyNLT5xxMQDxJy3xK+1fUA1V7PM7UDeWYgsi0pRYx4r/4xbJ7PEtNn4cRqSM5ks1EoKsceWITcvfUcXFUn9mspGWcfxYTTLHQVU0ZlO2W5T+C3dTkgJtiI+/q0jXtDua57kY+fFsrCfBMH7HC1LJhqtYlQ5go/DjyJJMsAUKqDjIdAPotuD2hwLSR1UerPyOJp4/YQjl0kjlcCqRSImHwNPiH/JMw2DDCYjTBjNa0uyVqkIz86O5M7JUaVHQwA0LmRebSFHiz5ZiI2XGCT2lqApKNbv64wpYiT8l1bfppNp70RSQpQk4URoJcZ6PzHsVU8lIQtsOj0vTboMdbcCVBvt/epoZ6FgikowrbVlKROKD/tLlG8zMEUn7InG2SG6ikUAyKZZ0NbZNrULtWr9QKPSVu5PatQ74tt+hniOQ3o6pXSG/PS37ylUqqaerQg32cWQRCPNNvwmD/C8p7MijPf/PKwAAAABJRU5ErkJggg==;" parent="1" vertex="1">
          <mxGeometry x="1530.0666666666668" y="320" width="44.86" height="62" as="geometry" />
        </mxCell>
        <mxCell id="UlfhOVo6xCXtAoO-9Ha_-82" value="HTTPS 통신" style="edgeStyle=none;curved=1;rounded=0;orthogonalLoop=1;jettySize=auto;html=1;entryX=0;entryY=0.5;entryDx=0;entryDy=0;fontSize=14;startSize=8;endSize=8;fontStyle=1" parent="1" source="UlfhOVo6xCXtAoO-9Ha_-81" target="UlfhOVo6xCXtAoO-9Ha_-70" edge="1">
          <mxGeometry relative="1" as="geometry" />
        </mxCell>
        <mxCell id="UlfhOVo6xCXtAoO-9Ha_-81" value="&lt;span style=&quot;font-size: 20px;&quot;&gt;&lt;span style=&quot;font-size: 20px;&quot;&gt;브라우저&lt;br style=&quot;font-size: 20px;&quot;&gt;&lt;br style=&quot;font-size: 20px;&quot;&gt;사용자&lt;/span&gt;&lt;/span&gt;" style="rounded=0;whiteSpace=wrap;html=1;fontSize=20;fontStyle=1" parent="1" vertex="1">
          <mxGeometry x="1280" y="280" width="120" height="520" as="geometry" />
        </mxCell>
        <mxCell id="UlfhOVo6xCXtAoO-9Ha_-90" value="" style="group;fillColor=#d5e8d4;strokeColor=#82b366;fontSize=14;" parent="1" vertex="1" connectable="0">
          <mxGeometry x="1750" y="540" width="260" height="60" as="geometry" />
        </mxCell>
        <mxCell id="UlfhOVo6xCXtAoO-9Ha_-91" value="" style="rounded=0;whiteSpace=wrap;html=1;fillColor=#d5e8d4;strokeColor=#82b366;" parent="UlfhOVo6xCXtAoO-9Ha_-90" vertex="1">
          <mxGeometry width="260" height="60" as="geometry" />
        </mxCell>
        <mxCell id="UlfhOVo6xCXtAoO-9Ha_-92" value="" style="group" parent="UlfhOVo6xCXtAoO-9Ha_-90" vertex="1" connectable="0">
          <mxGeometry x="10" y="10" width="230" height="40" as="geometry" />
        </mxCell>
        <mxCell id="UlfhOVo6xCXtAoO-9Ha_-93" value="AHALAND" style="text;html=1;align=center;verticalAlign=middle;whiteSpace=wrap;rounded=0;fontSize=16;" parent="UlfhOVo6xCXtAoO-9Ha_-92" vertex="1">
          <mxGeometry x="60" y="5" width="170" height="30" as="geometry" />
        </mxCell>
        <mxCell id="UlfhOVo6xCXtAoO-9Ha_-94" value="" style="verticalLabelPosition=bottom;aspect=fixed;html=1;shape=mxgraph.salesforce.web;" parent="UlfhOVo6xCXtAoO-9Ha_-92" vertex="1">
          <mxGeometry x="10.000000000000007" y="10" width="25.32" height="20" as="geometry" />
        </mxCell>
        <mxCell id="UlfhOVo6xCXtAoO-9Ha_-80" value="HTTP 통신" style="edgeStyle=none;curved=1;rounded=0;orthogonalLoop=1;jettySize=auto;html=1;entryX=0;entryY=0.5;entryDx=0;entryDy=0;fontSize=14;startArrow=classic;startFill=1;exitX=1;exitY=0.5;exitDx=0;exitDy=0;shape=link;fontStyle=1" parent="1" source="UlfhOVo6xCXtAoO-9Ha_-70" target="UlfhOVo6xCXtAoO-9Ha_-212" edge="1">
          <mxGeometry relative="1" as="geometry">
            <mxPoint x="1750" y="351.30499999999984" as="targetPoint" />
          </mxGeometry>
        </mxCell>
        <mxCell id="UlfhOVo6xCXtAoO-9Ha_-89" value="HTTP 통신" style="edgeStyle=none;curved=1;rounded=0;orthogonalLoop=1;jettySize=auto;html=1;entryX=1;entryY=0.5;entryDx=0;entryDy=0;fontSize=14;exitX=0;exitY=0.5;exitDx=0;exitDy=0;startArrow=classicThin;startFill=1;shape=link;fontStyle=1" parent="1" source="UlfhOVo6xCXtAoO-9Ha_-207" target="UlfhOVo6xCXtAoO-9Ha_-70" edge="1">
          <mxGeometry relative="1" as="geometry">
            <mxPoint x="1750" y="494.9999999999998" as="sourcePoint" />
          </mxGeometry>
        </mxCell>
        <mxCell id="UlfhOVo6xCXtAoO-9Ha_-95" value="HTTP 통신" style="edgeStyle=none;curved=1;rounded=0;orthogonalLoop=1;jettySize=auto;html=1;entryX=1;entryY=0.5;entryDx=0;entryDy=0;fontSize=14;shape=link;exitX=0;exitY=0.5;exitDx=0;exitDy=0;fontStyle=1" parent="1" source="UlfhOVo6xCXtAoO-9Ha_-91" target="UlfhOVo6xCXtAoO-9Ha_-70" edge="1">
          <mxGeometry relative="1" as="geometry" />
        </mxCell>
        <mxCell id="UlfhOVo6xCXtAoO-9Ha_-98" value="- SSL/TLS 인증서 자동 발급&lt;br&gt;&lt;br&gt;- 자동 리버스 프록시 구성" style="text;html=1;align=center;verticalAlign=middle;whiteSpace=wrap;rounded=0;fontSize=16;" parent="1" vertex="1">
          <mxGeometry x="1500" y="390" width="100" height="270" as="geometry" />
        </mxCell>
        <mxCell id="UlfhOVo6xCXtAoO-9Ha_-104" value="" style="group;fillColor=#d5e8d4;strokeColor=#82b366;fontSize=14;" parent="1" vertex="1" connectable="0">
          <mxGeometry x="2100" y="460" width="260" height="60" as="geometry" />
        </mxCell>
        <mxCell id="UlfhOVo6xCXtAoO-9Ha_-105" value="" style="rounded=0;whiteSpace=wrap;html=1;fillColor=#d5e8d4;strokeColor=#82b366;" parent="UlfhOVo6xCXtAoO-9Ha_-104" vertex="1">
          <mxGeometry width="260" height="60" as="geometry" />
        </mxCell>
        <mxCell id="UlfhOVo6xCXtAoO-9Ha_-106" value="데이터베이스" style="text;html=1;align=center;verticalAlign=middle;whiteSpace=wrap;rounded=0;fontSize=16;" parent="UlfhOVo6xCXtAoO-9Ha_-104" vertex="1">
          <mxGeometry x="70" y="15" width="160" height="30" as="geometry" />
        </mxCell>
        <mxCell id="UlfhOVo6xCXtAoO-9Ha_-107" value="" style="shape=cylinder3;whiteSpace=wrap;html=1;boundedLbl=1;backgroundOutline=1;size=15;" parent="UlfhOVo6xCXtAoO-9Ha_-104" vertex="1">
          <mxGeometry x="10" y="5" width="30" height="50" as="geometry" />
        </mxCell>
        <mxCell id="UlfhOVo6xCXtAoO-9Ha_-109" style="edgeStyle=none;curved=1;rounded=0;orthogonalLoop=1;jettySize=auto;html=1;entryX=0;entryY=0.5;entryDx=0;entryDy=0;fontSize=12;shape=link;exitX=1;exitY=0.5;exitDx=0;exitDy=0;" parent="1" source="UlfhOVo6xCXtAoO-9Ha_-212" target="UlfhOVo6xCXtAoO-9Ha_-105" edge="1">
          <mxGeometry relative="1" as="geometry">
            <mxPoint x="2010" y="351.30499999999984" as="sourcePoint" />
          </mxGeometry>
        </mxCell>
        <mxCell id="UlfhOVo6xCXtAoO-9Ha_-110" style="edgeStyle=none;curved=1;rounded=0;orthogonalLoop=1;jettySize=auto;html=1;entryX=0;entryY=0.5;entryDx=0;entryDy=0;fontSize=12;exitX=1;exitY=0.5;exitDx=0;exitDy=0;shape=link;" parent="1" source="UlfhOVo6xCXtAoO-9Ha_-91" target="UlfhOVo6xCXtAoO-9Ha_-105" edge="1">
          <mxGeometry relative="1" as="geometry" />
        </mxCell>
        <mxCell id="UlfhOVo6xCXtAoO-9Ha_-113" value="리눅스, CentOS" style="rounded=0;whiteSpace=wrap;html=1;verticalAlign=bottom;fillColor=#f5f5f5;fontColor=#333333;strokeColor=#666666;fontSize=20;fontStyle=1" parent="1" vertex="1">
          <mxGeometry x="2481" y="280" width="319" height="520" as="geometry" />
        </mxCell>
        <mxCell id="UlfhOVo6xCXtAoO-9Ha_-114" value="웹 서버의 도커 네트워크 구성도" style="rounded=0;whiteSpace=wrap;html=1;verticalAlign=bottom;fontSize=20;fillColor=#dae8fc;strokeColor=#6c8ebf;fontStyle=1" parent="1" vertex="1">
          <mxGeometry x="2492" y="290" width="298" height="465" as="geometry" />
        </mxCell>
        <mxCell id="UlfhOVo6xCXtAoO-9Ha_-115" value="" style="shape=image;html=1;verticalAlign=top;verticalLabelPosition=bottom;labelBackgroundColor=#ffffff;imageAspect=0;aspect=fixed;image=https://cdn1.iconfinder.com/data/icons/social-media-2106/24/social_media_social_media_logo_docker-128.png" parent="1" vertex="1">
          <mxGeometry x="2622" y="685" width="38" height="38" as="geometry" />
        </mxCell>
        <mxCell id="UlfhOVo6xCXtAoO-9Ha_-149" value="" style="group;fillColor=#d5e8d4;strokeColor=#82b366;fontSize=14;" parent="1" vertex="1" connectable="0">
          <mxGeometry x="2521" y="540" width="260" height="60" as="geometry" />
        </mxCell>
        <mxCell id="UlfhOVo6xCXtAoO-9Ha_-150" value="" style="rounded=0;whiteSpace=wrap;html=1;fillColor=#d5e8d4;strokeColor=#82b366;" parent="UlfhOVo6xCXtAoO-9Ha_-149" vertex="1">
          <mxGeometry width="260" height="60" as="geometry" />
        </mxCell>
        <mxCell id="UlfhOVo6xCXtAoO-9Ha_-151" value="깃랩 RUNNER" style="text;html=1;align=center;verticalAlign=middle;whiteSpace=wrap;rounded=0;fontSize=16;" parent="UlfhOVo6xCXtAoO-9Ha_-149" vertex="1">
          <mxGeometry x="60" y="15" width="180" height="30" as="geometry" />
        </mxCell>
        <mxCell id="UlfhOVo6xCXtAoO-9Ha_-152" value="" style="shape=image;html=1;verticalAlign=top;verticalLabelPosition=bottom;labelBackgroundColor=#ffffff;imageAspect=0;aspect=fixed;image=https://cdn0.iconfinder.com/data/icons/phosphor-fill-vol-3/256/gitlab-logo-fill-128.png" parent="UlfhOVo6xCXtAoO-9Ha_-149" vertex="1">
          <mxGeometry x="10" y="10" width="40" height="40" as="geometry" />
        </mxCell>
        <mxCell id="UlfhOVo6xCXtAoO-9Ha_-153" value="리눅스, CentOS" style="rounded=0;whiteSpace=wrap;html=1;verticalAlign=bottom;fillColor=#f5f5f5;fontColor=#333333;strokeColor=#666666;fontSize=20;fontStyle=1" parent="1" vertex="1">
          <mxGeometry x="1470" y="840" width="570" height="520" as="geometry" />
        </mxCell>
        <mxCell id="UlfhOVo6xCXtAoO-9Ha_-154" value="웹 서버의 도커 네트워크 구성도" style="rounded=0;whiteSpace=wrap;html=1;verticalAlign=bottom;fontSize=20;fillColor=#dae8fc;strokeColor=#6c8ebf;fontStyle=1" parent="1" vertex="1">
          <mxGeometry x="1480" y="850" width="550" height="470" as="geometry" />
        </mxCell>
        <mxCell id="UlfhOVo6xCXtAoO-9Ha_-155" value="" style="shape=image;html=1;verticalAlign=top;verticalLabelPosition=bottom;labelBackgroundColor=#ffffff;imageAspect=0;aspect=fixed;image=https://cdn1.iconfinder.com/data/icons/social-media-2106/24/social_media_social_media_logo_docker-128.png" parent="1" vertex="1">
          <mxGeometry x="1736" y="1240" width="38" height="38" as="geometry" />
        </mxCell>
        <mxCell id="UlfhOVo6xCXtAoO-9Ha_-156" value="&lt;div&gt;&lt;br&gt;&lt;/div&gt;&lt;div&gt;&lt;b&gt;Traefik&lt;br&gt;웹 서버&lt;/b&gt;&lt;br&gt;&lt;/div&gt;" style="rounded=0;whiteSpace=wrap;html=1;fontSize=14;verticalAlign=bottom;fillColor=#d5e8d4;strokeColor=#82b366;" parent="1" vertex="1">
          <mxGeometry x="1495" y="860" width="115" height="400" as="geometry" />
        </mxCell>
        <mxCell id="UlfhOVo6xCXtAoO-9Ha_-157" value="" style="shape=image;verticalLabelPosition=bottom;labelBackgroundColor=default;verticalAlign=top;aspect=fixed;imageAspect=0;image=data:image/png,iVBORw0KGgoAAAANSUhEUgAAAL8AAAEICAMAAAA5jNVNAAABxVBMVEX///83q8jvkyXl5eVZWVkzMzOv3en20qIAAADS4mGWAADX7vTwjQDMzMwuLi4nJyfk6eyTk5MgICAPDw8kJCQZGRnExMTVmZnk6u+4uLg2NjYYpMRWW1vvkRuZmZlGRkaoqKjqzMyHytz5kQD29vaEhITO4E/vjxKRAAC14Ovu7u4crdDC4euMAABNTU1ubm7/1Z9fX1/Z2dnQ6/Lo0b7m3NPpyq/qwZ3tqWfj8/f/26mj0+L2x57rtoZhUlJDr8r65cuPopa+m2vsr3V8fHxnu9J/MjJzQEDapaXg65v0+N2TzN2mn4NNqb2Ho5vEmmT99u3umz7rs36wnXmGKCiCRVFnTEyQFRW7cnLSkZH/79rX5Xf43bnZ5n3m77Dt88fYl0tspq2foIl4pabNmVrnlDDtpFrv3d2lODiBLCzdvr7Uq6pmk6hFmrRROztifJFfDw9wZ3mnR0eyZGR8UmBjU2e2bW13PDzCr7WfHh62zda9goOBqbohaHkWRVEPLjYpfpNjfYN9laZqWkaVf2I3LyTbu5CpvrLFxq/j7aTFaQC+ezS1fD/Bzmy5wn+zuoeFcFVRRTaBTxLKfB86IwmrZw20wrM1xguPAAAay0lEQVR4nO2d+X8aR5bAQYDA3KdshBAIgRE0Bgl0IawgS8LjBMnWkcSJrCSWbMmOc8zGnp1sPNnJ7MSxk2xmdjPZyd+7dXXTR/VR1SB/dj95P9gIuqu+79WrqldHVzscv4mOFEV53SAWpNoMTaTzsdJ2Y6Ge88QTQFIDgX9FJnP1hcZ2aTqfngi5qq8bGEu1mc6XGrlUIhWPJ5ORSJgqHlHgH5FIMhkHKsXrjVI+3XxdilRD+e06wE5iZkAVjyNLJ6GdFxqNxjYQ8F9jYcFdz4VTqECAllBJj2dyEmoDbkol6tv50MVq4cpvh1PxCMDABGH3dgx4RdNVNXT1YtXVBE42XWrUI0hzkMIkUCQciaeSjXzzYuBDpUgKoSfjCU9jOs1pu2pzIh9rTCaQHZASqfj2xJBZtZIPxxF7yrOdbw6jYXFN5LcnE0gJTzgej420scqnIp7JcDy1nR6uwxab+UYKpu2JJPJDTVkhjZQHZLAdGk3qzekcUMGT2h5N8g5HPTIZiU+PsoBdsXjEk2yMJO1iLuxJlEaStFzyKU98JLkA/NSIPEch1UlPKj/8ZAF+3DX8ZClSjXsSQzfUQsSTuhh8UJETnviQa1kpeXH4oA7Ew+6hJphOTSYuqHtHshCO54eYnCsxmRh91y6TIqgCQ+whR9MiGMlEKrwwtMS2I5GR9Yl60ginhlXioUS4zn5Xsd2qjXc6nfHxSq3WCrQZG5QiCFXYM6VKhLRmYMACxobuRsw4eGvXOoWeM4PESf7H0u0VOrW2zm2ufMmdA7JAks8nk/mh4JcisDcJlXL1uhtLPdeg9i+AHIE7DQSqURgPqO58NLGQE1OHyUPXAaPoYeA3E8mYI7QgpU7y+PLxJ0r2cYhuRK5UojcuFUTxT9fm1MnX045QKjI9BP562F1tqJJ3u6c+9s/5n4jX1ArW2Qc6dDvILS9fm/P731BnUF+ogipsHz8dD8c09ID/rt/vv3YZwfeY2SUdei3HJ9dASv7fTWmyyJXCkbxt/rAnp6V3u9+AmfqvFdsFbnisQfcxSultLT/QwBOxi59PTtLwp26iXP2f2oKHItzFKdH43Z5k2iZ/PExxHsB/Def6mV18p/MdnBLFgUABhHO26J/4/Z9T8d/Fmd4V7PP/3q/vQG7Pv7xnIwy6DKx8k5bu1Ns40y84eHH/IOslcFJ+Gr77c//ctSfmoHRBLQOV/w0/n/uAZr/TwoFEsdXpYhWIA9EyQuV8bYYPv6rXsEm196Zo0Iyza9bvwgud48ogCDReTsmB5miGQn46xzcWe4qS1XQsUIj5fw+Z+mJE0271u4Yq1LR5FHsZyYGoNRjxP+PBn0Hmv0sz/5ckR2emoApksEWpxi/Qs6lknH8gjQEtK9S6XnvEwf9M1yhTyChz/n8tUAq23aNqkKEYH0sg8xkIRaC8S8nqdyivP7LjFw3NP/f42R+fRel31goU0YuaoQKF9559NafThE7hfp6d/wmyybvUJOcev3/58uVP9G4tjmvEsAYGJi7fek+nrpECYG+Cbs3ptWlf+p/dAvjv6zulRgED60OpQHPM6WQHa8DcLS5+ap84NfcU4l82SrKtxNf1ffHyf4P2mNPpwyD/n5j5H/n9X1Lxv/wK0huZH0hNwW+aWQ0WwLM5egGAznJO11f1ZWGKGpFMzb1/2cz8QOT4LdO82p/AFL/SKQD3zZvs+EVq2A+63scWzO9wtFjM73A8h0Z5j14AIFOO6Y8mNW4G3vinW0hMbpdVYeL9xWZIfwayhqqUXg1w59iD0DQ97v/YP4PENEF145OOAZnWmwIOoAJ4phMuuuvsc695Kv8b/meYH17SDE2EdOekAxVF25+PTUOJ6VzfHr9l1ATV2ZcDpmn8U2/PXRbNXwxh0bm/HQi0ahXR/ZsYH4jO5eOwAG7pxet19qlEGj8Ix+eeiOYPhQwVKAaQAB3gX3kRP6bjCeOoAJ7qjGOGxX8X9ORQgEu4JH6dqhAQhfAD74dVQIdkHBUA6AL8H1MKgIOf4v8wFnkK8WHbKeHrtSoKfnThRKjanNC5utZqPXnyBLZAtCiIw/8nKPYHHeF7YuUV4XUdSMsPK7tehQfXXZmZeaIThtbZl6607T9oO/1z7wP85oCoCT9Y4G+Sq4sTdG9DteXRzIxO0JtjH0Fq+184aEfNj8qidI8oSvww76JUWvTc2uhKwq8ddPAsxTTU5seB7MxMFBGR+lt16Vi0LfGj/kus7jqGxFc/mnlMHfTVeeahVRWYDCRuzTwiRCbVd8CPh8guI3zR2WaeUicTOaovyFDlQH7CLxEZ4g/cn6gLd1/perGobPQpdS6II3wDsq0w/9uE3yXxO1wgItOLg2TmD6gXW7QiXfmMzGwo2tB6nou/KSsA7D1wIFSBYh7Ry/EDJsNH2cVf+ylzKRytD5KS2nuAfG0tpG9Xai0EBCKgWjtgDCCr6r0/aCezOM0PHFaqweJ8rf+LXsXSiBZdVGn1M06nIDhrhh4kc7V2T5yMk4VB/OvYoZzSe/wfC4Rfs4CoFHxRpf/Zv//5m2+++fNfjKqAvKa0u+Js6KAX5hi7SJJGCkyJ081wvrmiGJUY4n/9jU+UmG4dUFSUQMYpvKP0oJytbSMTSIE5kiScr7Uwp0Pw/8Mnk6lKi1YJ2i2FVODco2isN6Zs44NGyF2fIitU/nfgaktfUkDHJ8jcT+WBTyF/hRVZeWVRPshHUnAO5tP9c2gR1R4+kBhZ6vJfQxOxPWlcOF6hWLQo/lxR4vs86IeWuA2i2G5V1PTjlR7MQfKgu5/nbdMDeapcq5Nnq7ZoezBv1Vfx+7S4Wn4yWU0y5F14UcsnovMj6SvzlCzaDigm3b5W4U+Z44/3SRafoQwf88z6U6X3xTvvfCrO5PcsGHK8VvWq+I+PamY3YfeB8ulN/82/Dove4VCuRFjAjx4de1/K6b/1eo+Olkzu6shWPgRnd3j8yhUV8wKIHm14gbz4DsP//OLlmhcqcGR458D82E4shG99ZJ0/0zdRoHZ0BPG9a2vely9fgv/W0J/HxgpU+qpsTKO2t/bIh717V69efUv3uqJ6RcvE/HsYXyvHxxv9zjiKYCm3qTLJmITdEPpN/PESEt0r25oVuY4y/4oowIc7/cKxDj6Q+VdwrbjXKxQ0inTV/CYxIkS++gH6eBV9/tA6v7NAmCFvv1DoAel2nWgTU2Z3Xp/f6x2kpVCkr8kiUzHE/xBDD/j1CyBAWxHtQmDqmnvPiH+esuMDKEJb+O6Yml/k/wB/1qvDLcZNPkb8x9bT6pub/xL2n7eMC4CRX/heWWeV/m89HZ0FeyyYWGx07hkWAKv9uxLuBmjhwFj5SNRh/nuGDUM9A/wfLsnMLxXAveHwO7vL8/Pzxxu4ecZj/Q0v+IoJ34h/T2l+qQDofQAzP+z9M2JoKs5VPH/1apcpIYMA4k1s/jelLz66qigPu/xOWfcv8neYUzE1/97gq0sGBUBtPy3nLvKPM29w1eX/QG1+4wKwxy92o7Wh8ZPaelXx5SVNkUhC6X9fKz8x/w+KL0mH8Kb28qU7PLskpdxFfuZapMdPNb/UI2gKYP3H/+TiF/2e2/7Cw2UqP2kr1eHah9pKAWX1x19+4dqlKnb/YhjDXH+Fn3788boW/yO9YIFeLFvZsezmjV2BWQex+MU4rGd+i4xd6N7eHBsrH2j5L+nFCqRPVpXL9fLYWLY8O3YH6sCkBI5fQJAKFWhbxwe5PDjcnw3CjLX8uuaXegUtPxSgQ/bO6QmDDplC0VFDH5x9+qZEHfb7gD2LMqXYX9f8Yq+sqhjHhJ/oUH7IoIP5llwlu/BgZ8CO+Netm18qAOVvG8ExhbDqYJn9RMVO5zeKE6jjmCMVP9YhGLy/c+Icjg6Q/fRhUM1O5f/QMFCmjWP2KPxEh9n7Ow/s6iAIu6cPQZFq2an86rjZvAD0+CUdDrl1AOw37mT12Gn8qmGLpQIw4B/ocJtVB8i+OWbEjviV/Zdm2KIRyjimbJiDpMP+5m2rnRxgv715ZsZO4dcMWzTykbZ+mOMTHcqzZ+YdNfj5NuicLLBr+SnDFo1o26d9a1kRJYx0kHWsFkXJb25+2jjmnIGf6EAJNlQdKw//WxbMTymAVUZ+ogMKNiR6WufEyk8dtmhEM4454OAnOjwkCgiGjaRFfp1hi0bUpbRu3V3VciYWwCxnAnJ+nWGLtgBUteQ6P/8swT8x6UOs8BsFboYFYId/F/Pf5k1Cxm8QN6vkB2U9scEfvI3df8c+v3Xzq8cxK/z85VNUAYRNziZAxm/d/FI/QWrKsg3+Q8x/3zY/g/nV4xgb/FncgArcCUj8poEbpQBIU6UegLHw7wu2mk+J/6O/GQ1bNAK7iqv3/v53XBr8/GNZxL/LzR/cwECl6en/sm5+2FXfO52OkUMqrvMrMGuv+R8rE3yfrx6bvqc7bNEWwN+mSx6fjxy/cBzkrX+4A+Bu/oNHKP8i2oXQOLVsfofjVze6R3xs4JyTIHgCq+8p790bOPdtvI0ibx3f0cS3TIp/c7aAZdiBCYd8/NktnLeL7GFhegYgju8RN05zNiGoA+PtvoLPcd4LGIXtULs0vkncOS3c4Yt/dyD/Q87qU9iTuYKPcScfuavp2Ns7OjoS+Oog6oA5u9/sw5N57/zxBjE/65F8eXzbi3m8a4GvDc/CpRvhjOdWoDveSLH2MgFBmPdwI/yXeOvRPGcfigIIgbPun0obQYACMVZ8xzTAP1wj6/6cENn7kJ+v+SnfEDfirB36fMz4sNdIrXklfi4GHABxtl03utJGFt8Ldv7j//b9bJcfjYC7vPyCyP/S591gxd+b9/p8ov5rAqcTjwnc4RvmhxZc+xn4MSv/hnftW9934uZBwckXg5Vt8O8Iay98L16+PPzZBxjY+dEO1J+//Q6UwjFn+2mHP7spiHt4D73eI1Z+XACkD9jLcMaQQYE/fN4XSOD23Rq7+4MK4JW2ADvanPHDWNBG+D+7S7J/yWN+hwNWHJxAus07hLLDn/0H2X7M4f24AOZJAaQCvDMIdvjHiPmXjnisjzRw5HASP3FPgNjw/19w3raOAZ3AafzDDj+v72X/h33YopEISuOfnPhoAoJ/+gFWAJsHp6JxzD85p+/H7PS/QPlg+acde/jAg0r5anVxfT9YznLowB3/ZMvB7OryUnQI78lwAYlecS0DHViXgLjizyxgH1tdWboSjcKs7eJXXViiQIfFldWxIENJ4PjfevuTLZeDwfP1ZZEdit2DuF1ywUpsgZKAWpiqYXn8lUXkZ6sAPRodsA+dX1QiurS4sr66X4Z6lKEmOvsvEP8Y/Ud4VxliB4P7qwcry0uuKyp0JDYrQFHLL2oBC2NpcXll/WD1fP8sG1RL+WwfzT+s7p+VNT9mz/bPVw/WV5YXATcVXJQR8cv1gKpcuQL+WBIFfAbfRJ/DB0qugB+jst/Ij1fwjWbp2+SvmqZvJIjfVgp2K4A9/tpr57eXd/P/OP8w7G+vAVp0XbFQx/TErv+DdmFp0Q7+HuoPuXVA/E1O9Gh0aWVrLLhqh/8oiDr1sa0VroLoOOGDgFzoy+vnKN7K7tvhF1dP4ZbPM6DE0hVLbbYo8LHAzHMmchigHJzLoqysHf4VefCFgpT9LbGrt6AG2rXdt8RNgpJzTYAYtMO/uK+OmXGoNXa+Nej6qarAb6voodJeVf8K2HGjIORglQSFqiAJ1D87DWj1ytLyapkS92M1guX9863160CVRRIYQAGfFgHSysE63j+wCsKcZdUF+Ir1rfP9LAoCKREg8Nn99cVo1A4/NhOI+2k6iGFkmYSRyugNfIefnBHOqBcYRa6wuu0fwHbPZa8DGBT1Egr7mUaRXPtPYLmWz9dlzZ0N/qLCXeVjF0v8ZP+PtclH2RhG1VIPh19UAjYTB7CZQF5rhFa+gfdfGS5gZ6WatHVdZwwzRH7JnaRWY0z0ZezNMinPPsD8p7NZ9U9SjRiDDcDKomGLPHT+gRqwPEBzsrgMG5P1g62trVUk4MP6+nWyf++B6peD9fUV2CIB6ugVCz0JP7/l6D9Kkyo5UwB3ABqxmvZF8NOF7P/s2Uvl9fGTx4+6NpN5XfxNwm93BGOD38bYBUT/xH84RwBE7AQQ189X1J0Jg3TE/fMMEbQKHXSZ62PGO/4NBfS22dWVRabmQhLpmUcLETSVHc0ZB4/58R0O0MFmB5OqbEpIT1/sstUjEqmcoTglSHkGlUH28OZD2MdnoRJR61o8l55+tFwBomjATiJFFF7YG/5CBQZxM9v4qyp7ZNbMgaTx18F5VrHKENyyiQ8U2C8r4y2oRRZHLUtRcQCmleeyh08zUd3LYPwBI6nzM0pgG6Q8gM0uW5QVFBI1wvgLTiPDeIYIDIS2VvezTrnsBvdX4UBNftkKiIrOcfxHHX+B8t4YBr6jc7tsEAFL8eRAwDck9hRFuDGrvUx/4WA4ri9KLePcnGVb+ZrdUT3DJmwyLmMHz2xNvMmlnXEKu3dmGbagzG5qHsETHjIokA2e3RCGhY8PUBN2D7MWN3KXNdZHChxatAAY+Ny/LQhG5/8wCgEQHtzRnYaQZZ493KU+ACnsbmZNV2Ah/Cm63/D8KDaRWnKgAn6KkUYBW6TZ+zsn+o+gCsIJup2qBFz3hY9/dvH9GfNDji1LR8HgPDndvJ+dnQ0OGpJgcHb27OHhDfPn+uHT7jcOH56B25X3B/fv7DyQPbrKdH6giajPXhEg5smDG6c7h0B2Tm88ONkVGI4kgNfumtw/RPfXniAo42DhZrg/Y+W1MZZFfbjf6CVjdmg3k2iP9xu1DNN9OI/wsiPDdR/1EaAXwD9cfEfhgvkNDw/kEL4zyLjF7PBSdrnYFmiIh/cSYT6+yo6Ynb3KIxfJP3zz85xfyC2jMP9FFsAozH+BNWC4ocNALqoJGnbbLwrfOY7sMiL8C6rCo/IeKExnAHLiDzlwU8ro8Ufl/FhGXQUyww37tTLiOG7U+KNVILNrY6XIqrSHevChXIST+XneR42sy/HxiPox4dW81zu/MVr6Pfg058kofCjzPX5c1tZqnZls4Mfhfx26AsLu4MT60eFL58h72Y4yN8f/VfbSgI1R4csP8v/VOTwNMide+TsP5kfUCnmV8mpIDVGmt6R+Y8NF4AOTvWI631aPHk41qF5ZsjEC/A01P2zsxmkv3mCAzxRItKlSYAT8Wnz0goVWgbsQMl1ZrKlUYPg1YE9je+mnWo9dhUym21EG+iPmV78TSJlDre+0rkMmk+lVtKMUuXFGbn/tBcVav2d6YDW4oFugsKtzGDq+snx1u8h2rVPoQUokEjP+q1foqF84p1RAakZH0QEcSambx1jFNnx3egfL+HitFmhb2QO2Z2Ide7J3PELrEDmeH2H4gFxofqTxITwzYISyIb5U5zf5fyCu9HQMCn4+oRprbMvfc121/eT4aKVZT8QjUJLolDxXIhKOyM7Ya/gSvO9dvhDJ+8IeIuhsse0I/JgQf06nPJ4k65lpSplolEZngAkfxA1HkslkKge/qCN1EuKzLjGgTthtJ4e0LxxnO7OPRRBt3D2dz+fTyEqNsML+9vkXYIJ2MfUkBNzDk5yWfdP0RcLhhPSNff4c4J80v4xPIJ4noviq2cgtpBUX2OOHOYyMHxZuxOhoFvv8iVHyT6rdRy22+Ysj5Ufunze4wDa/KzVy/rTBBbb5myPnj4+UfyLOxt+uAWmp35AeoHwJZfT86SSVX+yRqyD2GkRbrZ44SMz0OlKn3emKXxbUezkR/4TqS/lzphT+4nTeGno+B2QShSY5JFIckk8kJmFYWGz4QOwlHq3VVkxiZcgSXEc+ls90xQ09TTdMMTxIXGxFXZ6ELHzT8lcjyZSlAqn6wkBwaBVGkiCWaoKgJTwJ6wYKtkgDQlnTAx6D3/glG8WTuap6RJW6mDjUaXDYmIbflQK/J5oW+Is+GNXiLFCAGxGPUUZ1wgdCXZx9Cjtwn8xHwXcYE9pMEa8U91vtdqCDi4dsKllAQTPGx4kTfp/CpdT8IZSntUOImyUgKPzxlJCIFQ3xJxyTYU8knkikSHQXANDSXFoAv4Ub/pORNmDXiFLwczUGU4SJhxdQ4nlyUcKIH4erPqMar5I8pf4i/kg6Hk6UQrLQuqjcrEYW6eWbeLCLyZamKe2PEX8e4SdCDuuiy+9xJ93GxYj5Fdvf0d4b2Z5INv5p+Fs4zjSg1OePmLUCeLe64iu0gVq2M4OJvwSvDnvYHuPX50+ZjcrQZl3V27dt8DeQ17IOhvX93/QoabhEr94Fw8+/AEGSzKdQ6vKnTNtgZH/lV2jXQWZgQuv8ddjWpthPcdTlT5gWJKysqo0YaPuxbFueVf5iDuIn2E8PN+DXXtvuFHpwU0EXzpAHUIemfPgGv3tWViWs8S8UUU+dyLPjM/DXuopIB//Rl/l/m/RpsoKzxO/JTUL8pDrOGy6/zqtN4UpLrw+kQKI7xaZUa/zhJArzePAt83dF3G6v25Wtumj0Uexrs+g/edTycylgkZ8EC1L8025VClgfJX1X2Z5arb+o64rUHexijR8HNsrGBjaf3cC4bB2s11dv57fcfm7HrfT43Pw4dlZe1RloVGwDobW31tv/BuSIsB+ibI2/q4nUcFtv9uwiS/8La3KSeSbWGj/qVlWDW1VTb5ff4YYKxFl7YMSvmr/V4Vc6d5sSvdniRyNLT5xxMQDxJy3xK+1fUA1V7PM7UDeWYgsi0pRYx4r/4xbJ7PEtNn4cRqSM5ks1EoKsceWITcvfUcXFUn9mspGWcfxYTTLHQVU0ZlO2W5T+C3dTkgJtiI+/q0jXtDua57kY+fFsrCfBMH7HC1LJhqtYlQ5go/DjyJJMsAUKqDjIdAPotuD2hwLSR1UerPyOJp4/YQjl0kjlcCqRSImHwNPiH/JMw2DDCYjTBjNa0uyVqkIz86O5M7JUaVHQwA0LmRebSFHiz5ZiI2XGCT2lqApKNbv64wpYiT8l1bfppNp70RSQpQk4URoJcZ6PzHsVU8lIQtsOj0vTboMdbcCVBvt/epoZ6FgikowrbVlKROKD/tLlG8zMEUn7InG2SG6ikUAyKZZ0NbZNrULtWr9QKPSVu5PatQ74tt+hniOQ3o6pXSG/PS37ylUqqaerQg32cWQRCPNNvwmD/C8p7MijPf/PKwAAAABJRU5ErkJggg==;" parent="1" vertex="1">
          <mxGeometry x="1530.0666666666668" y="880" width="44.86" height="62" as="geometry" />
        </mxCell>
        <mxCell id="UlfhOVo6xCXtAoO-9Ha_-175" value="HTTP 통신" style="edgeStyle=none;curved=1;rounded=0;orthogonalLoop=1;jettySize=auto;html=1;entryX=0;entryY=0.5;entryDx=0;entryDy=0;fontSize=14;startArrow=classic;startFill=1;exitX=1;exitY=0.5;exitDx=0;exitDy=0;shape=link;fontStyle=1" parent="1" source="UlfhOVo6xCXtAoO-9Ha_-156" target="UlfhOVo6xCXtAoO-9Ha_-186" edge="1">
          <mxGeometry relative="1" as="geometry">
            <mxPoint x="1749.9999999999995" y="990" as="targetPoint" />
          </mxGeometry>
        </mxCell>
        <mxCell id="UlfhOVo6xCXtAoO-9Ha_-178" value="- SSL/TLS 인증서 자동 발급&lt;br&gt;&lt;br&gt;- 리버스 프록시" style="text;html=1;align=center;verticalAlign=middle;whiteSpace=wrap;rounded=0;fontSize=16;" parent="1" vertex="1">
          <mxGeometry x="1500" y="950" width="100" height="270" as="geometry" />
        </mxCell>
        <mxCell id="UlfhOVo6xCXtAoO-9Ha_-189" value="빌드 시스템&lt;br style=&quot;font-size: 14px;&quot;&gt;컨테이너 내부에서 빌드" style="edgeStyle=none;curved=1;rounded=0;orthogonalLoop=1;jettySize=auto;html=1;entryX=0;entryY=0.5;entryDx=0;entryDy=0;fontSize=14;exitX=1;exitY=0.5;exitDx=0;exitDy=0;shape=link;fontStyle=1" parent="1" source="UlfhOVo6xCXtAoO-9Ha_-186" target="UlfhOVo6xCXtAoO-9Ha_-150" edge="1">
          <mxGeometry x="0.1688" y="5" relative="1" as="geometry">
            <mxPoint y="1" as="offset" />
          </mxGeometry>
        </mxCell>
        <mxCell id="UlfhOVo6xCXtAoO-9Ha_-191" value="HTTPS 통신" style="edgeStyle=none;curved=1;rounded=0;orthogonalLoop=1;jettySize=auto;html=1;fontSize=14;startSize=8;endSize=8;fontStyle=1" parent="1" source="UlfhOVo6xCXtAoO-9Ha_-190" target="UlfhOVo6xCXtAoO-9Ha_-156" edge="1">
          <mxGeometry relative="1" as="geometry" />
        </mxCell>
        <mxCell id="UlfhOVo6xCXtAoO-9Ha_-190" value="&lt;span style=&quot;font-size: 20px;&quot;&gt;&lt;span style=&quot;font-size: 20px;&quot;&gt;브라우저&lt;br style=&quot;font-size: 20px;&quot;&gt;&lt;br style=&quot;font-size: 20px;&quot;&gt;개발팀&lt;/span&gt;&lt;/span&gt;" style="rounded=0;whiteSpace=wrap;html=1;fontSize=20;fontStyle=1" parent="1" vertex="1">
          <mxGeometry x="1280" y="841" width="120" height="519" as="geometry" />
        </mxCell>
        <mxCell id="UlfhOVo6xCXtAoO-9Ha_-197" value="세션 관리" style="edgeStyle=none;curved=1;rounded=0;orthogonalLoop=1;jettySize=auto;html=1;entryX=0;entryY=0.5;entryDx=0;entryDy=0;fontSize=14;shape=link;fontStyle=1" parent="1" source="UlfhOVo6xCXtAoO-9Ha_-91" target="UlfhOVo6xCXtAoO-9Ha_-192" edge="1">
          <mxGeometry relative="1" as="geometry" />
        </mxCell>
        <mxCell id="UlfhOVo6xCXtAoO-9Ha_-201" value="" style="group;fontSize=14;fontStyle=0" parent="1" vertex="1" connectable="0">
          <mxGeometry x="1720" y="1030" width="260" height="60" as="geometry" />
        </mxCell>
        <mxCell id="UlfhOVo6xCXtAoO-9Ha_-186" value="" style="rounded=0;whiteSpace=wrap;html=1;fillColor=#d5e8d4;strokeColor=#82b366;" parent="UlfhOVo6xCXtAoO-9Ha_-201" vertex="1">
          <mxGeometry width="260" height="60" as="geometry" />
        </mxCell>
        <mxCell id="UlfhOVo6xCXtAoO-9Ha_-187" value="&lt;b&gt;깃랩&lt;/b&gt;&lt;br&gt;형상관리 솔루션" style="text;html=1;align=center;verticalAlign=middle;whiteSpace=wrap;rounded=0;fontSize=16;" parent="UlfhOVo6xCXtAoO-9Ha_-201" vertex="1">
          <mxGeometry x="80" y="15" width="140" height="30" as="geometry" />
        </mxCell>
        <mxCell id="UlfhOVo6xCXtAoO-9Ha_-188" value="" style="shape=image;html=1;verticalAlign=top;verticalLabelPosition=bottom;labelBackgroundColor=#ffffff;imageAspect=0;aspect=fixed;image=https://cdn0.iconfinder.com/data/icons/phosphor-fill-vol-3/256/gitlab-logo-fill-128.png" parent="UlfhOVo6xCXtAoO-9Ha_-201" vertex="1">
          <mxGeometry x="10" y="10" width="40" height="40" as="geometry" />
        </mxCell>
        <mxCell id="UlfhOVo6xCXtAoO-9Ha_-206" value="" style="group;fillColor=#d5e8d4;strokeColor=#82b366;fontSize=14;" parent="1" vertex="1" connectable="0">
          <mxGeometry x="1750" y="460" width="260" height="60" as="geometry" />
        </mxCell>
        <mxCell id="UlfhOVo6xCXtAoO-9Ha_-207" value="" style="rounded=0;whiteSpace=wrap;html=1;fillColor=#d5e8d4;strokeColor=#82b366;" parent="UlfhOVo6xCXtAoO-9Ha_-206" vertex="1">
          <mxGeometry width="260" height="60" as="geometry" />
        </mxCell>
        <mxCell id="UlfhOVo6xCXtAoO-9Ha_-208" value="" style="group" parent="UlfhOVo6xCXtAoO-9Ha_-206" vertex="1" connectable="0">
          <mxGeometry x="10" y="10" width="230" height="40" as="geometry" />
        </mxCell>
        <mxCell id="UlfhOVo6xCXtAoO-9Ha_-209" value="대외 서비스" style="text;html=1;align=center;verticalAlign=middle;whiteSpace=wrap;rounded=0;fontSize=16;" parent="UlfhOVo6xCXtAoO-9Ha_-208" vertex="1">
          <mxGeometry x="60" y="5" width="170" height="30" as="geometry" />
        </mxCell>
        <mxCell id="UlfhOVo6xCXtAoO-9Ha_-210" value="" style="verticalLabelPosition=bottom;aspect=fixed;html=1;shape=mxgraph.salesforce.web;" parent="UlfhOVo6xCXtAoO-9Ha_-208" vertex="1">
          <mxGeometry x="10.000000000000007" y="10" width="25.32" height="20" as="geometry" />
        </mxCell>
        <mxCell id="UlfhOVo6xCXtAoO-9Ha_-211" value="" style="group;fillColor=#d5e8d4;strokeColor=#82b366;fontSize=14;" parent="1" vertex="1" connectable="0">
          <mxGeometry x="1750" y="380" width="260" height="60" as="geometry" />
        </mxCell>
        <mxCell id="UlfhOVo6xCXtAoO-9Ha_-212" value="" style="rounded=0;whiteSpace=wrap;html=1;fillColor=#d5e8d4;strokeColor=#82b366;" parent="UlfhOVo6xCXtAoO-9Ha_-211" vertex="1">
          <mxGeometry width="260" height="60" as="geometry" />
        </mxCell>
        <mxCell id="UlfhOVo6xCXtAoO-9Ha_-213" value="" style="group" parent="UlfhOVo6xCXtAoO-9Ha_-211" vertex="1" connectable="0">
          <mxGeometry x="10" y="10" width="230" height="40" as="geometry" />
        </mxCell>
        <mxCell id="UlfhOVo6xCXtAoO-9Ha_-214" value="대외 서비스" style="text;html=1;align=center;verticalAlign=middle;whiteSpace=wrap;rounded=0;fontSize=16;" parent="UlfhOVo6xCXtAoO-9Ha_-213" vertex="1">
          <mxGeometry x="60" y="5" width="170" height="30" as="geometry" />
        </mxCell>
        <mxCell id="UlfhOVo6xCXtAoO-9Ha_-215" value="" style="verticalLabelPosition=bottom;aspect=fixed;html=1;shape=mxgraph.salesforce.web;" parent="UlfhOVo6xCXtAoO-9Ha_-213" vertex="1">
          <mxGeometry x="10.000000000000007" y="10" width="25.32" height="20" as="geometry" />
        </mxCell>
        <mxCell id="UlfhOVo6xCXtAoO-9Ha_-216" value="" style="edgeStyle=none;curved=1;rounded=0;orthogonalLoop=1;jettySize=auto;html=1;fontSize=12;exitX=1;exitY=0.5;exitDx=0;exitDy=0;shape=link;entryX=0;entryY=0.5;entryDx=0;entryDy=0;" parent="1" source="UlfhOVo6xCXtAoO-9Ha_-207" target="UlfhOVo6xCXtAoO-9Ha_-105" edge="1">
          <mxGeometry relative="1" as="geometry">
            <mxPoint x="1950" y="200" as="targetPoint" />
          </mxGeometry>
        </mxCell>
        <mxCell id="UlfhOVo6xCXtAoO-9Ha_-218" value="" style="group;fontSize=14;" parent="1" vertex="1" connectable="0">
          <mxGeometry x="2100" y="585" width="260" height="60" as="geometry" />
        </mxCell>
        <mxCell id="UlfhOVo6xCXtAoO-9Ha_-192" value="레디스" style="rounded=0;whiteSpace=wrap;html=1;fillColor=#d5e8d4;strokeColor=#82b366;" parent="UlfhOVo6xCXtAoO-9Ha_-218" vertex="1">
          <mxGeometry width="260" height="60" as="geometry" />
        </mxCell>
        <mxCell id="UlfhOVo6xCXtAoO-9Ha_-194" value="" style="shape=image;verticalLabelPosition=bottom;labelBackgroundColor=default;verticalAlign=top;aspect=fixed;imageAspect=0;image=data:image/png,iVBORw0KGgoAAAANSUhEUgAAAOEAAADhCAMAAAAJbSJIAAAA7VBMVEX///+kHhHYLCCtIRV6DAChHRCiEgC8Z2HXLCCgAADYKRyyIhWoHxLNKR3TKx/CJhrWFwCBDwOjGAbXJRevRT7Pk4++JRm4IxfVAADXHw7HKBvWGwZ1CQCjGwz32df65eT87u3yw8H+9/boj4rbPzXcSkH20tDqmZXurarjcGrsp6PwubbniYTdUUnlfXj21dPgX1jmyMbxv7zaNyzmg36MEwnhaGL76ejUoZ7EenXhvbvarqvLjIeqMCa2V1DidG7ZlI+3EgDFSULcRz7bPDLAcWvRe3XUZF6sNy3HaGLXp6OsNCnGgHu0T0e4Xlfw73jRAAAQD0lEQVR4nO1da1vayhY2UCIJCKOpkEC5hbuI4mV7rfV0q+d0d7v7/3/OmSQoBGZmrTWg1P3k/dDnaQuTebPua03C1laCBAkSJEiQIEGCBAkSJEiQIAEZjVF/2D1LZR8m7VF905tZOy5HR2cuqzp2AMdjrn0/uNz0ptaHxsHEY56dmoftsOrk30GyORh7VSclgsO8yemm97ci/NHEZWJ6LyTZ+ce1Sb91ZCvpRfDc8cGH1NZ6u7Noe3JBOsPWpvdLhD94wNILwf2O3f44gvRb94wR6E1Jeu5k5G967xjU2w8ubHxCOCx7eLzp/QPwR2NvUTsp0rQ91h38xoI8vheEhs4Zwp/Ok2TufW/TTIS4PBBqp93hIV/idbjEzkT/7rjd3y9+tIaexLmwA26bh86SILlneWw3xuIv2cz7reJHo52Va6LthXZ1OmFVe+4fWbbNc5lGVfY17nbO+s0NE4vAnYurDH3Vw+iDjf4Dc4IP2lXW7Uc+89BTfNGuupPTjbud3nkKciS203j99L3Hqmzcf8lE/TPA0XJBtjeZtjYPupjMxTua/0q/MfvbiIFftr3qeFOJQOti3rJUYDIxjFFxhFeSG6g/Gn1CmHMuxIvUXewKvP4YNN+RHq/6sOILwOOCWARHKj+zeJeYffReiUD9CHQu8/R4JGw3hAv5Lik95xHm4eDtLdIfdNSxYfHOZ+UpWGPsSNobUpJV9+JtE4HekSxzEe6HVS9GTdV6jQMglgrumdvpi1VidVziYsMLPc99wCSX9fZyQgesXPXeRJCtiyrFuVSz+EjNlyaSdFhKYtu6aPQViaeIIDFIBx1HoiDX2RHwT9GhfYbs43hyf94ftOqNS9RGuIcmIugIrCMRaBwSK9gpbNtxPI8xbrpnD+PJUXvQEjvVxnFr0B6Ouw9Z+jU8Nl6xI+APHqi+TsSVk3U4Wbc/t3Szfjro349tFsBzHFvvMg5jR/qtnd4hJTYgwGa+9cENicG8CjvQJzy3o9URkPce9DHLT3twURFip5ze/aMEfcpm9PjRG4JRKlK+CDZSx9jLPoYY084W0xy7X77s5kFBBoUkPn40D85cR7HlYP7HnEKnO55cDO+HF5Nxt3PmhEoH7MPuRH6hgRAhF1+I3U+fPn358kcJckQ8fiBjFNCwdpjbuWiPjhvN+F1pHI/aF48M0GwWORtl8yJAoZjLp2cMA5K7BkKQzjnkdppBL0W6Aq8T2P2gIb9RfmPAM1eVBlYDn+ADInwR3zxDzvHTH2WIY9BRPmhK97fVUpZ9PB+8x9hz696Tr+JM+CcGKoaR9QkYhiRhQdpVJnE7jb667Kvim3vN/pm0S+jyq3fktzEmviWGoUWWCxBJXn+MFvcEZmY2a2P5heu1ZbZsd7ZaMhFy61vkt8gwtMhMBeJos3Esg/L7j0BscDxq4tCzJStWD+7F/7MsPjHDUJA5iKPDBjOdOgQzM+eRIsDpso+SRYVVBLe+vJCgiGFIEhKk7b5IcWTLO+uvm9LJ4evIvCUlFZ+CYSRIpUU6w2gfbUQ7aL6lSwCylZYVWR/MMBKkIg+YMhxhWpZMr2kg9SjzUIlPzRBKdLz/hLtAdZ2ZXqMSk15nK0oBKuyQJ6tq7fu+H2zC72JS5uoAIiPEADbwAIUSmSFPb8CCo2yFDLf+xMjQftBiqAjscXBBShypiCEXXxoM+oV0ZsrwM5gFBXgZAZJwiBPhdEdSQe4uia8IrpYtZQzjheEemB8EYG0ywTY+WERARHzuXNIFWDOKeU5wxjBTxrSA2ITWn7ycUAmmQkEua+vunPgysPhSqUo64DfH0MjkMWJ0vDa+q+X3Hb1DQwKL3H21PnWAj2BX8hG/eYYGjiOvoZFzyvo5vb86w6JF7k7FV0EsmS2+8osz5BzTGDl6brdfV0vSr/fHLmEsKMRCBRzmZwh+hZIx47fIMJAjRsd5edm5OOiJbbLRO7joMOLATLLZWSL+6RNcLIVfKcf4LTPkHI0SQtFTtlNlXqo7bA9GrV7vuH7c67VGg/bwIeUFJ9UpPIIz7VJ9ngoyh3KEqZ1cJs5PxJBzzORQ4THaW9itZi6bdq1JTeuAGmPZ7sXhSJ5VcUGWUPuJmZ+SYcAxXaHPDygIVICxx8l5vxW265Q9GxQKJRE/GcPQIFHKSkUkddd9HPZHx/6ru7pcleBOzhDyUzCkKCsKtsPFVrW52AatpfkC7kSNFDy6S/gpGQYk08U1KGsoturj5L7fqjeF7re/iggLQvNDMgyUFe7ayanZ3JG4LHC4x6oBaX2F2c/OYnSgMgyVFRWI4tRCH+uNzw9aiES2q62jleXoQGdooEPkjODjZNg/7Yk1chmHmjqaLQLiwzMMOFK8Du2EQg99rC0GUD1pDA2a17HZGfr0gI/uAcwDoZ4vDK+wDANB4r1OcHoA15o7p/QAIoiTFxnDBp5h5HXQgnRYqg8P1lG9xhiWcms1wUiEWIYGLdfhJQj0zISfJeooXj0D1KZWuLV1beG/RfI6DnBUckgrIinqyWFaN6+30jAp3+RVJMHrsCOp10Gc8J6Bpp4Bv+25m3t5R5CiEXodvCClh88uCU9DCUo/JWrW55O4QTxZNRpHXMsjgsMeRadALrA6mi2mSfS4AI3bpcud1IgcSbkOT1Eni+EDWxRS1ZPvzPyv0CquMmSOlKSVh4/YAYlLXDJDVc+oaeiJz4D5V3ckjxMtRxAkq86dtMcUhXT1NKY3nV9LGKrqf+5RV6SFj9lJSURRKOtMKPYyX7Z7bLJ47qA1YbayYJYujGpCRnCYFySt8PRbQz0X80rHPZ9X0eAc23RpqmVTk1Z30gJ0NFuhq6coSrPJzLE9zp19oasH2esoI6HG9WXBK3i0MxTgZPGS9HsYep11NCELZB1SdM2cSIj+mSD2ainr6g06neiguLHO/0KGkiJNR1lJSesyNMxPXZo72+rQlKVVK9NrErxO/GqrRQchzIjhROHY6DkTMWnVvxCcNhbyU4Z/KV13kFhoCJLWoNMwvzQYhIs8BY8Ybn8Hr68VItFeh/MjLo5waTuBTb8wNHOQd9ALkThl3aG6F4ylZ6Ob9sowY8B70fM6oGel80PkiIXydK+vDIOcHNapQllDkOr7TQ0PPM+HZTHntOYYciA4apQziuKDvBoqEMXa4XGGuIyE7vUkBoltzM+WwSQTO3HHH2doIA+c0CNzlJgXZvsrVDg90iKoMjRbWdzZEkNs+qzldTL5XLlULJbKuXyG+HWUeor8vYAhNuvSyXUClhkqOQOpnuINCRmiA5lOrkMHrvCUeQcJQwPbYdLJdYj8MHN2xTRKzhCbdQEHBVbmh1HPkuI2qxiiGxMa4QNHD2UrgBqpGRrYEkGrVIb4YfwdPCwFGaIbEzpNSBU/jBtQqieeoYGqxFIaKYrqgohZM87L4RhiQyRpwC6/FkppsDqDZYie4a8cPlDRAaOeU0zn3AiGBjZEruR1cLk1wRxqZpPAEDuE0WrQhctjzI/k0mrWdBD8hB+q4dqhGkkryvyIVY1pvky6TyhTfFyuQ/Q6yNKWpBs169tsSrpPOqiw9lwHxY+q+6b5c350eGWhDw1Fe0JVkQXUTc9k4LXIRXfNempuxVD/QT6Mgcp1QGXleSHID3enYsjFz5pEmmrSztRgzysqtQujC2TXHNx8W/Ry18tn+jkFZDtAskWEY6ZXZy/K5bDu0jsVtg6+r6mNtrTP0nLfCRNcdaY1s3vOOcYOnDX72apeGw1VYe2UZ+2nTNCUgrN5euawqPSOO/dOhfb04aP19nzjJIvlXPQUU3EH9p70NF6UE83eqZCde7hKp2jHVVho0OcHEt/uSd6pQEje5y6xwrMZcazhKM0Lpu/dOl0+YqalrGt5ImxdR2mmDP8KGYqn3FrKuuoTYVqzfIU3/66e42vN8EnPZqx8QcA2SvAcX2uGr3ngZM1HaYKzRxnMHF+nw6TzRBjZ/MASJ3hs6LVPo3T1WjN8orJqJGdAmRpNz2dzfOCogp7XwSqrhnuBMvZCbnGODx5V0BMkqglJDb5wLjw7vTLfTQS/ltXoa8PKSpYfvOT86ZyFOX4aMh1ipyRcVHnn6PID0/y4x1rsCMOmo9PXlq5KtW5YPZe2t9zzRpRCFXpfW9SfK5SISg+rpyCdFnX1Ed1CjcScV4Tlyuu9K1RK6bWrp3CiIJ5bIOp2La+TMfLpXI7XiAbxpAmmOJNsSDqZQSjrGqdpABAOWeodFLMnhLLqtDzogMsV1b1WTtcwTaa3muHPNgF2LNWOD5ofIpRVpx2ABdx1BoMXPCHFtLbXPMN/vTRYoCDKSdQMmCvKBrwOnHyg5s3IKTcig17PDP/1grDmIK+HnuPjvM6aBAnfUPyoxrxGMjRQTaa1nByChzUUBz4dcyPn+Ii6XSfXiV8DbEiS2pzW8xaFoYGahmkM+15XB82PFptq1vW0p/+T8k4FqD+i7XVg8yPmF6Y5e2T9M2VyiGlta42N1PyoXfg969vcOwD8H8R3KiC8DilEgtGP6sRq1t3NVgzX1KMKcMTCKyums0SUn+idCtSjCsF9B3MdTIiE+JFHNXvWj59L/AJN/VkjH1WAKywwn4P4kWOsaX2+lb0xxr+yiLqKyXWUDh5q71HzpJq5+E6TRdz+sKgHMhAVlsQgoQyCrJ41y9yGX8F18ovOEfY6y2VqBipZyOq5Z+W/4n7yqX5tUZ0OohQvFHNG9LxM+GcOEDy5Htuz/v6Jf01cc9/QUFb4yGKhUipzlCqgyInZbWB+NzCvGG6+WSb5bTXrebErOenj5vek9dsbzyZdWVd/sauG+d3t6/4Gu391p6GsK703gjzIN60fNyv9NODJNx1B6r43gvrQMy46QGh81REk4WVnLyCf4FlFPePwb//R4Eh8bwS5f65KzjQQhEhiPhd4HTw/ovnVLOuXOjmjw//5WSPXwZ05ofY99qwMMnkh4mSbnOtgOub09yGuVT3jaO6bdEGqJ39Efjx52V63ei7g5h96rmNIORZotfueZT6/iXrGUX82yFWkMHpQiyOunoTceiX4t2Svw3PW+C8cFCo56utW31o946hreB0jn+NVBUelWM7TvMueZT2/1a/FS9Hcp+c601cqUN+qYEo6S2+Pm1/0UpkMHtzfVz3jaHw1ybkOld/7q2ccodd5K0Ga1t17eU8l6k97byFIHty/UTsTb4amRtIK8bPM69VLv3XiZK1eZ8+qXTU3TWkJzf38mgSp0Th7L2g06JbAvadW4+y9oNOgi/Mzv244OoDwbw1tQfLa4ep3iA4gTra1BPkbm98yLnnSSgyR7107rAxahfUbJGc6qD8hG3SBe2luerd6aO7/DQuyZhn7H8K9iAF2k7n89pub3uWKCIbKMs/K7e8jy+8VjSdxFcmLo48R/hBo7v9YFKRpmb8+TvhDwD+5NizLNGsce6ZlWb+u3qHz+d6o3z7/c2ea+c9PVyf/Fu1MkCBBggQJEiRIkCBBggQJErwf/g9lht1GAaB+RQAAAABJRU5ErkJggg==;" parent="UlfhOVo6xCXtAoO-9Ha_-218" vertex="1">
          <mxGeometry x="10" y="10" width="40" height="40" as="geometry" />
        </mxCell>
        <mxCell id="UlfhOVo6xCXtAoO-9Ha_-219" value="" style="group;fontSize=14;fontStyle=0" parent="1" vertex="1" connectable="0">
          <mxGeometry x="1720" y="1110" width="260" height="60" as="geometry" />
        </mxCell>
        <mxCell id="UlfhOVo6xCXtAoO-9Ha_-224" value="" style="group" parent="UlfhOVo6xCXtAoO-9Ha_-219" vertex="1" connectable="0">
          <mxGeometry width="260" height="60" as="geometry" />
        </mxCell>
        <mxCell id="UlfhOVo6xCXtAoO-9Ha_-220" value="" style="rounded=0;whiteSpace=wrap;html=1;fillColor=#d5e8d4;strokeColor=#82b366;" parent="UlfhOVo6xCXtAoO-9Ha_-224" vertex="1">
          <mxGeometry width="260" height="60" as="geometry" />
        </mxCell>
        <mxCell id="UlfhOVo6xCXtAoO-9Ha_-221" value="&lt;b&gt;매터모스트&lt;/b&gt;&lt;br&gt;협업 스페이스" style="text;html=1;align=center;verticalAlign=middle;whiteSpace=wrap;rounded=0;fontSize=16;" parent="UlfhOVo6xCXtAoO-9Ha_-224" vertex="1">
          <mxGeometry x="80" y="15" width="140" height="30" as="geometry" />
        </mxCell>
        <mxCell id="UlfhOVo6xCXtAoO-9Ha_-223" value="" style="shape=image;verticalLabelPosition=bottom;labelBackgroundColor=default;verticalAlign=top;aspect=fixed;imageAspect=0;image=data:image/png,iVBORw0KGgoAAAANSUhEUgAAAOEAAADhCAMAAAAJbSJIAAAAe1BMVEX///8AAAD4+Pjw8PD09PTKysrk5OSYmJjAwMBGRkbd3d21tbXR0dGtra36+vrY2NhqamqPj493d3egoKCmpqY7OzuwsLBnZ2dcXFxPT09VVVV9fX0vLy8nJyeTk5OcnJyIiIhzc3MNDQ0ZGRkgICBCQkI1NTUUFBQcHBy7XaVmAAAJmklEQVR4nO2d2VrrOAyAcTdKW0pbyno40HAW5v2fcGiBLrZWS06Yb/zfNkmlJJZlSVbOziqVSqVSqVQqlUqlUqlUKpVKpVKpVP5H9CbD2+fFqGsxyjCZbh7Djh9di1KA4fIh7PndtTTejK6PtNsy6VoiVybPv0PEedcyOTJYP8XqhXDTtVR+zO5S9d7pdy2XF1Pg8W257FowJ9aweiE8di2ZD6h+IfS6ls2DKa5fGHctnANXfwkFF/z5g6a8jBbmDaFfCPwFBq+CgzqEekFDuOcnincFwzd2y3uPhHpP6wF/hf73HqtjQr/mSnKFnYJhWVrQXFa4fi+yOeJDwfBQWNBM+ogLE8Kr1IsZfZ1RVNBchujzE3tpewVJU7MWve7+nGP6yVdKBwVJU3MbpnZx9SwQ/e4E5vOTIwXDhjjufT56toqr5wIZgDP5JSbHJ14QB26Hg8AzcmWO2BhNuGlyeipx5Gz7e7sLlMEvWEHFA4wVpAI5V7sD/pjFljN4A/V7mCuucRWfTRiTz/HaXiikByuocksSBakX/NMraE3F+T+ggirPcpaeT4g/+DqGMkeOwEZGFQ8FFCRNzf6Ye6PsIh4g6XTBNNgZIu7R4aCVVXyeBhLuTT7Ln6He3i1+xtFRL1YFOF4g2V5VoSZswUWYmmPTVnglCd9+1RNEV5RP+DknQ79oOKAPiqb6SyLmgZ904iK+WbWgAM2oxpEhgzr4Guk0UnJn1gPlBySXKmJ/SygY1uhpd9IDjYCDUGW+LykFiUs10ZGFhuIckoowDylE4H/LT/TE+N6q/lUOmDfT3M1rWsEQcM99GR1ZZEEMWnnNiACn0hMIm3VjuLNSIJE0njAa1hHdr3ie+mvWJwG0owpv9JlXkIxUxGPYPekar8h3KEZDPJBAflFX+BMdrFluSwADT/LTNxIFafdvFB3rXIEEToXyICb4igMMqYvEd8nX2CT1MYGavmKkCoZr6irxfOy6Gga9SfEyhkjfRNAeZzyfesb6odCT+BE2YgW5kR0d7BhBBR+hdBRi0X8QevqJZwy/WjkwuCY8F66RwiBNTbmHCPprwgSTTkEuChO7DV4PEZwLZZGLe52CnH0cRIc7pWtAd0ZmqqkqBhjmgvEroYoQoYDGXjRVqIzMB4ynG3sePmWrOfd6h2A1kcDduRw5OMCpQlKlBYbuObiHErtujPEVAdoZyUuaoyA7vuOclUPcDQ6RCk4UO6O6K8fH2xdRYPRIMNWCFlgAt6iO7Z69SiNeeO4QhGfgFBUP9/7H7ofZr4nn2A94XyLN8QrhTE0ikPU1hYPU/HlKb+0A60r8jE6wvqagpLxDAz96Edyl44Fo9dxAIXhPgoluU3COWJIZsCkIW0R+mkUqpiRwF09GuG2pDz8LNkwKpjiEcGnsXnwCGdxhgQ0Gexpel8nDjqv4BFtECpSBr+fN8bm/IMPCW5KZ1qIg7LLxsdiMZdMBboJLVnOWwCn8tvEFH2h1tATOnUgyIJYZEU6I8Ve0KMj6bcl0sTFoCL9t/GRh0pCoHNqRLFgtrmmcl/yAnYASg66Cs/7p0DFoCIvAjmybhtwwT2MH+bv/YFNadsLnn2G6bMkPmyJLID6EZ9KQy+6mnmR+qRtSgsa/FCYNOXnT+56f8UYKfPhnCFsoIVwVWToO87eFIc4XX59g8mm4y6e2NL+sFsm+816SxS9lbX86dvJ97wYWgV+QWdYWrLjp2MkvcEcyR7xPY5ku2OVe+oLklw8hqSOBp2tY47NjIA01y2smhHIKisnz4zTs8hC476/ZGoLRYFGtDuINCeCjXMCeK28NJXt2tcnfPfxUBJzkraHkglmptSDJJQHhv/y3FLMXktxyplvDz7VAPjO/BxWWhpekJfMeoiCADbgh+bMFNphEO3OyRqKgYBV4sfJn/AaRQ+Ql5ZhTSVF1rjwgaFWo6GxybwWI5FlAb39+7xfUgZalCtQZNokFg8J/+asn9CkIt8gpw6ai+wbZ9/w9NOgSQbght/eqUVAUiwB9+vwoBl5tICzS11gbWeQarO7Jz6/hmVzpezGAyqdBhM8BnIMM1W2oPPJ948KaDGFAEF54Zmq3BV/myfM9kq0kD9KYLmj7LN178Lqmjfwik7h6IkEeDQS9XcvOC2Ih63SZd1byoHy8q+QDLpVDQbjPuqQdvjFvpdnJD79TllpoIsWijY2MISt4s1YlVZAAl1KSU4ghpK7snI83x8Po52qq7WoKe5G2ZhlECWVeo5HRbDy9nY5nWbl3WBBbqzdqc7lHea4KZCFgk4Nyu/KjlHlgYWZjcSLSLmmHxUpngIwYa88acmuki+BS4LnQWvTF5FhabSSPeZDmnUGUhq47ABlQm2e+MpnsbK9ZPup7bMyXphqUelxfCBqbVHVWgSE19PgDCWjLkPyA/oGGVrGVXt2YHfXpXcuE51tpoQa3wNvismUdbkC3p4UpA9/G6NNLkWu6UvyzAITX4dO5la3DK+yCUxECp79gd6EV/cIKNV159cjGLdkXBVuokW6jzzbgM0kqsJiKpIJ+TRQFewkLvai0R+V4XwW7zos4N3QK0rN5smRDaIGW20y43PXzPJJkp3vzf+ZPfV0NUZrMtx813rT/E2ePWNTo6dXR3tA2JhRo1SrR0PFvG/Zuev3THvaefnDjMvwF5UYFXEXp9nN7M46eoEy8RFNocU7+zXh7RbWpRRbedPPRYy4MMbixqH6j0PcuFG0SHjN1nMoqG0o1Lldtsr/IKHJZ49GKU7x7Ju5RbjI4V9nVibwZSsEAn7DB456LS6GSoxdx4U3hb0NhddE4f8/ZOz5cKtQr/WmovK0iF8sxspQbjZfarRn+zkwkUpaKW24Wy8vxbDLqvzOazMaXy0VWLXjxb9BZtjR50EJu3dC2xIFWvtkqaglciJY+bJXZxcuB1pLO8qayvrTwCZZuVWxRwW5e1FbrImR1sb60/vU8+WrRhw4+7d3u1N96Ed2WkWo3hY2uPhec2xtRi+qjfL60Y286+ELngdzNsBo6GYIH5tlbmoU8dveGfkF/eNxKJ5/Jjelld/JkuXdL1BsZUpXEBjoegSewn3LKwKcbuRtzb1989V1e0AN9zyXVoisnhqbv9Ryb76nflp6pfdInG9caC3/GNmf1puVNHFmMzrMnj03RGkBPJrpMxKd6LdWMezFaazzWPy8tbt1w5Opa4tA9PA+7964N9IfXKyy99HT3jCWl/nP0RrPp+nzzo1ksFs1qs7yeDifffFKoVCqVSqVSqVQqlUqlUqlUKpVKpVLx5l+eYWdFf5GKQQAAAABJRU5ErkJggg==;" parent="UlfhOVo6xCXtAoO-9Ha_-224" vertex="1">
          <mxGeometry x="10" y="10" width="40" height="40" as="geometry" />
        </mxCell>
        <mxCell id="UlfhOVo6xCXtAoO-9Ha_-225" value="HTTP 통신" style="edgeStyle=none;curved=1;rounded=0;orthogonalLoop=1;jettySize=auto;html=1;entryX=1;entryY=0.5;entryDx=0;entryDy=0;fontSize=14;exitX=0;exitY=0.5;exitDx=0;exitDy=0;shape=link;fontStyle=1" parent="1" source="UlfhOVo6xCXtAoO-9Ha_-220" target="UlfhOVo6xCXtAoO-9Ha_-156" edge="1">
          <mxGeometry relative="1" as="geometry" />
        </mxCell>
        <mxCell id="UlfhOVo6xCXtAoO-9Ha_-227" value="" style="group;fillColor=#d5e8d4;strokeColor=#82b366;fontSize=14;" parent="1" vertex="1" connectable="0">
          <mxGeometry x="2521" y="460" width="260" height="60" as="geometry" />
        </mxCell>
        <mxCell id="UlfhOVo6xCXtAoO-9Ha_-228" value="" style="rounded=0;whiteSpace=wrap;html=1;fillColor=#d5e8d4;strokeColor=#82b366;" parent="UlfhOVo6xCXtAoO-9Ha_-227" vertex="1">
          <mxGeometry width="260" height="60" as="geometry" />
        </mxCell>
        <mxCell id="UlfhOVo6xCXtAoO-9Ha_-229" value="데이터베이스" style="text;html=1;align=center;verticalAlign=middle;whiteSpace=wrap;rounded=0;fontSize=16;" parent="UlfhOVo6xCXtAoO-9Ha_-227" vertex="1">
          <mxGeometry x="70" y="15" width="160" height="30" as="geometry" />
        </mxCell>
        <mxCell id="UlfhOVo6xCXtAoO-9Ha_-230" value="" style="shape=cylinder3;whiteSpace=wrap;html=1;boundedLbl=1;backgroundOutline=1;size=15;" parent="UlfhOVo6xCXtAoO-9Ha_-227" vertex="1">
          <mxGeometry x="10" y="5" width="30" height="50" as="geometry" />
        </mxCell>
        <mxCell id="UlfhOVo6xCXtAoO-9Ha_-233" value="복제" style="edgeStyle=none;curved=1;rounded=0;orthogonalLoop=1;jettySize=auto;html=1;entryX=0;entryY=0.5;entryDx=0;entryDy=0;fontSize=14;startSize=8;endSize=8;fontStyle=1" parent="1" source="UlfhOVo6xCXtAoO-9Ha_-105" target="UlfhOVo6xCXtAoO-9Ha_-228" edge="1">
          <mxGeometry relative="1" as="geometry" />
        </mxCell>
        <mxCell id="UlfhOVo6xCXtAoO-9Ha_-236" value="&lt;h1 style=&quot;margin-top: 0px; font-size: 34px;&quot;&gt;&lt;font style=&quot;font-size: 34px;&quot;&gt;서버 아키텍처&lt;/font&gt;&lt;/h1&gt;&lt;div style=&quot;&quot;&gt;&lt;span style=&quot;font-size: 23px; background-color: initial;&quot;&gt;- 모든 서비스는 서비스는 도커 위에서 동작하도록 설계하여 서버 이전시 볼륨과 도커 환경만 가지고 이전할 수 있도록 유연성을 고려하였습니다.&lt;/span&gt;&lt;br&gt;&lt;span style=&quot;background-color: initial; font-size: 23px;&quot;&gt;&lt;br&gt;&lt;/span&gt;&lt;/div&gt;&lt;div style=&quot;&quot;&gt;&lt;span style=&quot;background-color: initial; font-size: 23px;&quot;&gt;- 소규모 팀으로 개발을 진행하기 때문에 대부분을 자동화 하였습니다.&lt;/span&gt;&lt;/div&gt;&lt;div style=&quot;&quot;&gt;&lt;span style=&quot;background-color: initial; font-size: 23px;&quot;&gt;&lt;br&gt;&lt;/span&gt;&lt;/div&gt;&lt;div style=&quot;&quot;&gt;&lt;span style=&quot;background-color: initial; font-size: 23px;&quot;&gt;&amp;nbsp; - SSL/TLS 인증서 발급 자동화, traefik의 인증서 발급 기능을 사용하여, 개발자의 개입없이 인증서를 만료시 자동으로 갱신되도록 설정했습니다.&lt;/span&gt;&lt;/div&gt;&lt;div style=&quot;&quot;&gt;&lt;span style=&quot;background-color: initial; font-size: 23px;&quot;&gt;&amp;nbsp; - GITLAB의 내장 CICD 시스템을 활성화 하여 빌드 자동화를 구성하였습니다. 자세한 문서는 각 프로젝트의&lt;br&gt;&quot;.gitlab-ci.yml&quot;을 확인하세요.&amp;nbsp;&lt;/span&gt;&lt;/div&gt;" style="text;html=1;whiteSpace=wrap;overflow=hidden;rounded=0;" parent="1" vertex="1">
          <mxGeometry x="2240" y="880" width="600" height="480" as="geometry" />
        </mxCell>
      </root>
    </mxGraphModel>
  </diagram>
</mxfile>
